<?xml version="1.0" encoding="UTF-8" standalone="no"?>
<!-- Created with Inkscape (http://www.inkscape.org/) -->

<svg
   version="1.1"
   id="svg2"
   xml:space="preserve"
   width="585.44"
   height="573.02667"
   viewBox="0 0 585.44 573.02667"
   sodipodi:docname="4136917.svg"
   inkscape:version="1.1.2 (08b2f3d93c, 2022-04-05)"
   xmlns:inkscape="http://www.inkscape.org/namespaces/inkscape"
   xmlns:sodipodi="http://sodipodi.sourceforge.net/DTD/sodipodi-0.dtd"
   xmlns="http://www.w3.org/2000/svg"
   xmlns:svg="http://www.w3.org/2000/svg"><defs
     id="defs6" /><sodipodi:namedview
     id="namedview4"
     pagecolor="#ffffff"
     bordercolor="#666666"
     borderopacity="1.0"
     inkscape:pageshadow="2"
     inkscape:pageopacity="0.0"
     inkscape:pagecheckerboard="0"
     showgrid="false"
     inkscape:zoom="0.76087209"
     inkscape:cx="4.5999848"
     inkscape:cy="333.82746"
     inkscape:window-width="1920"
     inkscape:window-height="1032"
     inkscape:window-x="1920"
     inkscape:window-y="789"
     inkscape:window-maximized="1"
     inkscape:current-layer="g8" /><g
     id="g8"
     inkscape:groupmode="layer"
     inkscape:label="ink_ext_XXXXXX"
     transform="matrix(1.3333333,0,0,-1.3333333,0,573.02667)"><g
       id="g10"
       transform="matrix(0.1,0,0,0.1,1.2925426,-2.6855572)"><path
         d="M 4260.89,2630.57 C 3773.44,3465.3 2451.38,3168 2181.34,3574.05 c -138.28,207.91 -292.96,448.9 -517.33,574.22 -213.89,119.47 -461.89,162.1 -678.108,146.27 C 213.824,4238.02 -113.547,3547.23 34.8203,2788.63 232.746,1776.71 1129.78,743.039 2195.46,735.801 c 557.36,-3.781 1089.48,195.449 1506.89,477.109 3.13,2.1 6.24,4.21 9.35,6.33 416.99,283.85 921.34,774.01 549.19,1411.33"
         style="fill:#73cd91;fill-opacity:1;fill-rule:nonzero;stroke:none"
         id="path12" /><path
         d="m 2211.07,735.75 c -5.17,0 -10.44,0.02 -15.61,0.051 -311.82,2.121 -609.21,92.121 -878.86,243.738 4.44,3.973 8.72,8.121 12.83,12.43 2.1,2.203 2.02,5.703 -0.19,7.801 -1.07,1.02 -2.44,1.52 -3.8,1.52 -1.46,0 -2.91,-0.57 -4,-1.708 -4.76,-5 -9.77,-9.773 -15,-14.293 -75.57,43.031 -148.85,90.851 -219.72,142.981 h 292.95 c -0.44,-5 -1.05,-9.96 -1.82,-14.85 -0.48,-3.01 1.57,-5.83 4.58,-6.31 0.3,-0.05 0.59,-0.07 0.87,-0.07 2.67,0 5.01,1.94 5.44,4.66 0.87,5.46 1.53,10.98 2,16.57 h 335.4 v 5.51 -5.51 c 75.45,0 136.61,61.15 136.61,136.61 v 93.43 h 284.83 c -5.15,-30.99 -9.37,-57.28 -12.4,-75.46 -16.33,-98.06 -45.33,-186.32 -30.55,-220.07 14.67,-33.65 225.69,-196.139 347.04,-238.05 55.17,-19.109 174.28,-26.98 287.76,-29.878 -171.41,-38.051 -348.49,-59.114 -528.36,-59.102 m -839.01,339.75 c -2.23,0 -4.33,-1.37 -5.17,-3.58 -5.08,-13.52 -11.49,-26.39 -19.07,-38.46 -1.62,-2.58 -0.85,-5.98 1.73,-7.6 0.92,-0.58 1.93,-0.85 2.93,-0.85 1.84,0 3.63,0.91 4.68,2.58 7.97,12.69 14.72,26.22 20.06,40.45 1.07,2.85 -0.37,6.03 -3.22,7.1 -0.64,0.24 -1.3,0.36 -1.94,0.36 m 2036.63,-36.51 c 30.18,32.35 58.26,68.48 82.54,108.73 v 0 0 c 0,0 -28.23,92.58 -75.72,210.59 h 363.33 c 125.59,0.01 227.45,101.87 227.45,227.47 v 1338.65 c 98.23,-78.4 184.95,-174.59 254.6,-293.86 91.31,-156.37 129.85,-303.89 129.87,-441.67 0.05,-423.76 -364.38,-755.46 -679.06,-969.66 -3.11,-2.12 -6.22,-4.23 -9.35,-6.33 -92.58,-62.47 -190.77,-120.87 -293.66,-173.92 m -281.7,19.85 c -0.77,0 -1.11,1.01 -1.11,2.85 0.01,13.37 17.84,70.73 17.86,106.24 0,10.24 -1.47,18.66 -5.29,23.69 -16.11,21.36 -59.01,23.13 -72.78,23.13 -2.73,0 -4.32,-0.07 -4.32,-0.07 l 4.97,30.77 c 0.39,2.03 12.32,63.21 22,112.86 h 67.03 c 35.89,-64.91 82.94,-154 95.52,-196.47 0,0 -123.44,-98.84 -123.38,-102.7 0,-0.08 0.05,-0.11 0.15,-0.11 -0.24,-0.13 -0.46,-0.19 -0.65,-0.19 m -771.3,71.89 -37.95,33.42 78.97,194.16 h 25.26 l 31.57,-139.77 c 0,0 -9.55,0.71 -22.58,0.71 -21.03,0 -51.14,-1.85 -64.9,-11.52 -10.77,-7.63 -13.55,-25.87 -13.55,-42.69 0,-17.97 3.18,-34.31 3.18,-34.31 m -1971.225,774.4 c -69.66,114.29 -131.215,233.05 -183.61,354.16 0.844,-0.52 1.84,-0.82 2.907,-0.82 3.047,0 5.515,2.47 5.515,5.51 v 44.12 c 0,3.05 -2.468,5.52 -5.515,5.52 -3.047,0 -5.516,-2.47 -5.516,-5.52 v -42.76 C 124.574,2436.77 69.168,2613.04 34.8203,2788.63 11.5664,2907.54 0,3024.77 0,3138.16 c 0,610.04 334.84,1108.72 985.902,1156.38 28.688,2.1 57.898,3.17 87.558,3.17 193.83,0 405.04,-45.82 590.55,-149.44 210.14,-117.38 359.17,-336.23 490.82,-534.32 H 611.926 c -120.172,-0.01 -218.625,-93.35 -226.785,-211.5 -0.45,-5.31 -0.676,-10.64 -0.676,-16.07 v -814.34 c -13.746,-2.38 -27.067,-6 -39.836,-10.76 -2.856,-1.06 -4.305,-4.24 -3.242,-7.09 0.828,-2.22 2.929,-3.6 5.168,-3.6 0.64,0 1.289,0.12 1.925,0.35 11.555,4.3 23.583,7.64 35.985,9.9 v -655.71 m -175.985,496.4 c -2.55,0 -4.843,-1.79 -5.39,-4.38 -3.059,-14.5 -4.719,-29.51 -4.836,-44.88 -0.024,-3.04 2.426,-5.53 5.473,-5.56 0.011,0 0.027,0 0.043,0 3.027,0 5.492,2.45 5.515,5.48 0.11,14.63 1.692,28.9 4.598,42.68 0.629,2.98 -1.278,5.91 -4.258,6.54 -0.383,0.08 -0.766,0.12 -1.145,0.12 m 34.961,80.34 c -1.738,0 -3.445,-0.81 -4.519,-2.34 -8.617,-12.28 -16.035,-25.46 -22.094,-39.37 -1.215,-2.8 0.063,-6.05 2.86,-7.26 0.714,-0.31 1.46,-0.46 2.195,-0.46 2.129,0 4.156,1.24 5.062,3.32 5.754,13.22 12.813,25.75 21.004,37.43 1.75,2.49 1.149,5.93 -1.344,7.68 -0.964,0.68 -2.07,1 -3.164,1 m 63.594,60.3 c -0.996,0 -2.008,-0.27 -2.914,-0.84 -12.824,-8.01 -24.785,-17.28 -35.703,-27.63 -2.211,-2.1 -2.305,-5.59 -0.207,-7.8 1.082,-1.14 2.543,-1.72 4.004,-1.72 1.359,0 2.726,0.5 3.793,1.52 10.387,9.84 21.762,18.66 33.957,26.28 2.582,1.61 3.371,5.01 1.758,7.6 -1.047,1.67 -2.848,2.59 -4.688,2.59"
         style="fill:#d9f1dd;fill-opacity:1;fill-rule:nonzero;stroke:none"
         id="path14" /><path
         d="m 477.27,2575.35 h -44.125 c -3.047,0 -5.516,-2.47 -5.516,-5.52 0,-3.05 2.469,-5.51 5.516,-5.51 h 44.125 c 3.043,0 5.511,2.46 5.511,5.51 0,3.05 -2.468,5.52 -5.511,5.52 m -88.95,-2.67 c -15.113,-2.35 -29.73,-6.2 -43.691,-11.4 -2.856,-1.06 -4.305,-4.24 -3.242,-7.09 1.062,-2.86 4.238,-4.31 7.093,-3.25 13.27,4.94 27.165,8.61 41.532,10.84 3.011,0.46 5.074,3.28 4.605,6.29 -0.469,3.01 -3.285,5.07 -6.297,4.61 m -84.199,-31.35 c -12.824,-8.01 -24.785,-17.28 -35.703,-27.63 -2.211,-2.1 -2.305,-5.59 -0.207,-7.8 2.094,-2.21 5.586,-2.3 7.797,-0.2 10.387,9.84 21.762,18.66 33.957,26.28 2.582,1.61 3.371,5.01 1.758,7.6 -1.618,2.58 -5.02,3.37 -7.602,1.75 m -65.199,-61.8 c -8.617,-12.28 -16.035,-25.46 -22.094,-39.37 -1.215,-2.8 0.063,-6.05 2.86,-7.26 2.792,-1.22 6.042,0.06 7.257,2.86 5.754,13.22 12.813,25.75 21.004,37.43 1.75,2.49 1.149,5.93 -1.344,7.68 -2.496,1.75 -5.933,1.15 -7.683,-1.34 m -35.832,-82.38 c -3.059,-14.5 -4.719,-29.51 -4.836,-44.88 -0.024,-3.04 2.426,-5.53 5.473,-5.56 3.046,-0.02 5.535,2.43 5.558,5.48 0.11,14.63 1.692,28.9 4.598,42.68 0.629,2.98 -1.278,5.91 -4.258,6.54 -2.98,0.62 -5.906,-1.28 -6.535,-4.26 m -4.844,-89.05 v -44.12 c 0,-3.04 2.469,-5.51 5.516,-5.51 3.047,0 5.515,2.47 5.515,5.51 v 44.12 c 0,3.05 -2.468,5.52 -5.515,5.52 -3.047,0 -5.516,-2.47 -5.516,-5.52 m 0,-88.24 v -44.13 c 0,-3.04 2.469,-5.51 5.516,-5.51 3.047,0 5.515,2.47 5.515,5.51 v 44.13 c 0,3.04 -2.468,5.51 -5.515,5.51 -3.047,0 -5.516,-2.47 -5.516,-5.51 m 0,-88.25 v -44.13 c 0,-3.04 2.469,-5.51 5.516,-5.51 3.047,0 5.515,2.47 5.515,5.51 v 44.13 c 0,3.05 -2.468,5.51 -5.515,5.51 -3.047,0 -5.516,-2.46 -5.516,-5.51 m 0,-88.25 v -44.12 c 0,-3.05 2.469,-5.52 5.516,-5.52 3.047,0 5.515,2.47 5.515,5.52 v 44.12 c 0,3.05 -2.468,5.52 -5.515,5.52 -3.047,0 -5.516,-2.47 -5.516,-5.52 m 0,-88.25 v -44.12 c 0,-3.05 2.469,-5.52 5.516,-5.52 3.047,0 5.515,2.47 5.515,5.52 v 44.12 c 0,3.05 -2.468,5.52 -5.515,5.52 -3.047,0 -5.516,-2.47 -5.516,-5.52 m 0,-88.25 v -44.12 c 0,-3.05 2.469,-5.52 5.516,-5.52 3.047,0 5.515,2.47 5.515,5.52 v 44.12 c 0,3.05 -2.468,5.52 -5.515,5.52 -3.047,0 -5.516,-2.47 -5.516,-5.52 m 0,-88.25 v -44.12 c 0,-3.05 2.469,-5.51 5.516,-5.51 3.047,0 5.515,2.46 5.515,5.51 v 44.12 c 0,3.05 -2.468,5.52 -5.515,5.52 -3.047,0 -5.516,-2.47 -5.516,-5.52 m 0,-88.24 v -44.13 c 0,-3.04 2.469,-5.51 5.516,-5.51 3.047,0 5.515,2.47 5.515,5.51 v 44.13 c 0,3.04 -2.468,5.51 -5.515,5.51 -3.047,0 -5.516,-2.47 -5.516,-5.51 m 0,-88.25 v -44.13 c 0,-3.04 2.469,-5.51 5.516,-5.51 3.047,0 5.515,2.47 5.515,5.51 v 44.13 c 0,3.04 -2.468,5.51 -5.515,5.51 -3.047,0 -5.516,-2.47 -5.516,-5.51 m 0,-88.25 v -44.12 c 0,-3.05 2.469,-5.52 5.516,-5.52 3.047,0 5.515,2.47 5.515,5.52 v 44.12 c 0,3.05 -2.468,5.52 -5.515,5.52 -3.047,0 -5.516,-2.47 -5.516,-5.52 m 0,-88.25 v -44.12 c 0,-3.05 2.469,-5.52 5.516,-5.52 3.047,0 5.515,2.47 5.515,5.52 v 44.12 c 0,3.05 -2.468,5.52 -5.515,5.52 -3.047,0 -5.516,-2.47 -5.516,-5.52 m 0,-88.25 v -44.12 c 0,-3.05 2.469,-5.52 5.516,-5.52 3.047,0 5.515,2.47 5.515,5.52 v 44.12 c 0,3.05 -2.468,5.52 -5.515,5.52 -3.047,0 -5.516,-2.47 -5.516,-5.52 m 0,-88.24 V 1205 c 0,-3.05 2.469,-5.51 5.516,-5.51 3.047,0 5.515,2.46 5.515,5.51 v 44.13 c 0,3.04 -2.468,5.51 -5.515,5.51 -3.047,0 -5.516,-2.47 -5.516,-5.51 m 0,-88.25 v -13.79 c 0,-10.51 0.723,-20.85 2.117,-30.99 0.418,-3.01 3.203,-5.12 6.219,-4.71 3.016,0.42 5.129,3.2 4.711,6.22 -1.328,9.64 -2.016,19.48 -2.016,29.48 v 13.79 c 0,3.04 -2.468,5.51 -5.515,5.51 -3.047,0 -5.516,-2.47 -5.516,-5.51 m 12.766,-88.65 c 5.062,-14.34 11.539,-28.01 19.258,-40.85 1.57,-2.61 4.957,-3.45 7.57,-1.88 2.609,1.57 3.453,4.96 1.883,7.57 -7.34,12.2 -13.496,25.2 -18.309,38.83 -1.012,2.87 -4.164,4.38 -7.035,3.36 -2.871,-1.01 -4.379,-4.16 -3.367,-7.03 m 46.281,-77.011 c 10.18,-11.11 21.465,-21.188 33.672,-30.071 2.465,-1.789 5.914,-1.25 7.707,1.223 1.793,2.461 1.246,5.91 -1.219,7.699 -11.613,8.45 -22.344,18.039 -32.027,28.6 -2.059,2.25 -5.547,2.4 -7.793,0.34 -2.242,-2.06 -2.395,-5.549 -0.34,-7.791 m 72.66,-52.828 c 13.586,-6.192 27.899,-11.071 42.77,-14.469 2.972,-0.684 5.929,1.18 6.609,4.148 0.68,2.969 -1.176,5.93 -4.144,6.602 -14.141,3.238 -27.743,7.879 -40.661,13.758 -2.769,1.269 -6.043,0.039 -7.304,-2.731 -1.262,-2.769 -0.039,-6.039 2.73,-7.308 v 0 m 87.563,-20.059 c 1.847,-0.051 3.703,-0.07 5.562,-0.07 h 38.695 c 3.047,0 5.516,2.468 5.516,5.519 0,3.039 -2.469,5.508 -5.516,5.508 h -38.695 c -1.769,0 -3.535,0.02 -5.297,0.07 -3.043,0.071 -5.57,-2.339 -5.648,-5.39 -0.074,-3.039 2.336,-5.571 5.383,-5.637 m 88.382,-0.07 h 44.122 c 3.046,0 5.515,2.468 5.515,5.519 0,3.039 -2.469,5.508 -5.515,5.508 h -44.122 c -3.046,0 -5.519,-2.469 -5.519,-5.508 0,-3.051 2.473,-5.519 5.519,-5.519 m 88.247,0 h 44.125 c 3.046,0 5.515,2.468 5.515,5.519 0,3.039 -2.469,5.508 -5.515,5.508 h -44.125 c -3.047,0 -5.516,-2.469 -5.516,-5.508 0,-3.051 2.469,-5.519 5.516,-5.519 m 88.25,0 h 44.125 c 3.043,0 5.511,2.468 5.511,5.519 0,3.039 -2.468,5.508 -5.511,5.508 h -44.125 c -3.047,0 -5.516,-2.469 -5.516,-5.508 0,-3.051 2.469,-5.519 5.516,-5.519 m 88.246,0 h 44.125 c 3.047,0 5.515,2.468 5.515,5.519 0,3.039 -2.468,5.508 -5.515,5.508 h -44.125 c -3.043,0 -5.516,-2.469 -5.516,-5.508 0,-3.051 2.473,-5.519 5.516,-5.519 m 88.25,0 h 44.125 c 3.043,0 5.515,2.468 5.515,5.519 0,3.039 -2.472,5.508 -5.515,5.508 h -44.125 c -3.047,0 -5.516,-2.469 -5.516,-5.508 0,-3.051 2.469,-5.519 5.516,-5.519 m 88.25,0 h 44.121 c 3.047,0 5.515,2.468 5.515,5.519 0,3.039 -2.468,5.508 -5.515,5.508 h -44.121 c -3.047,0 -5.52,-2.469 -5.52,-5.508 0,-3.051 2.473,-5.519 5.52,-5.519 m 88.249,0 h 44.12 c 3.05,0 5.52,2.468 5.52,5.519 0,3.039 -2.47,5.508 -5.52,5.508 h -44.12 c -3.05,0 -5.52,-2.469 -5.52,-5.508 0,-3.051 2.47,-5.519 5.52,-5.519 m 88.25,0 h 43.04 1.11 c 3.04,0.019 5.5,2.5 5.49,5.539 -0.02,3.051 -2.5,5.508 -5.55,5.488 h -1.05 -43.04 c -3.05,0 -5.52,-2.469 -5.52,-5.508 0,-3.051 2.47,-5.519 5.52,-5.519 v 0 m 89.04,4.707 c 14.94,3.113 29.35,7.703 43.05,13.621 2.8,1.199 4.08,4.449 2.88,7.25 -1.21,2.789 -4.46,4.082 -7.25,2.871 -13.03,-5.621 -26.72,-9.981 -40.93,-12.941 -2.98,-0.622 -4.9,-3.54 -4.28,-6.52 0.62,-2.988 3.54,-4.898 6.53,-4.281 m 82.49,35.601 c 12.39,8.641 23.87,18.5 34.26,29.399 2.1,2.203 2.02,5.703 -0.19,7.801 -2.2,2.1 -5.69,2.02 -7.8,-0.188 -9.88,-10.371 -20.8,-19.742 -32.58,-27.961 -2.5,-1.75 -3.11,-5.18 -1.37,-7.68 1.74,-2.5 5.18,-3.109 7.68,-1.371 m 61.99,65.02 c 7.97,12.69 14.72,26.22 20.06,40.45 1.07,2.85 -0.37,6.03 -3.22,7.1 -2.85,1.07 -6.03,-0.37 -7.11,-3.22 -5.08,-13.52 -11.49,-26.39 -19.07,-38.46 -1.62,-2.58 -0.85,-5.98 1.73,-7.6 2.58,-1.62 5.99,-0.85 7.61,1.73 m 31.58,84.11 c 1.83,11.53 2.77,23.35 2.77,35.39 0,3.05 -2.47,5.52 -5.51,5.52 -3.05,0 -5.52,-2.47 -5.52,-5.52 0,-11.46 -0.9,-22.7 -2.63,-33.67 -0.48,-3.01 1.57,-5.83 4.58,-6.31 3.01,-0.48 5.84,1.58 6.31,4.59"
         style="fill:#1d2a30;fill-opacity:1;fill-rule:nonzero;stroke:none"
         id="path16" /><path
         d="m 1330.54,3705.34 v 44.12 c 0,3.04 -2.47,5.51 -5.52,5.51 -3.04,0 -5.51,-2.47 -5.51,-5.51 v -44.12 c 0,-3.05 2.47,-5.52 5.51,-5.52 3.05,0 5.52,2.47 5.52,5.52 z m 0,88.24 v 44.13 c 0,3.04 -2.47,5.51 -5.52,5.51 -3.04,0 -5.51,-2.47 -5.51,-5.51 v -44.13 c 0,-3.04 2.47,-5.51 5.51,-5.51 3.05,0 5.52,2.47 5.52,5.51 z m 0,88.25 v 44.13 c 0,3.04 -2.47,5.51 -5.52,5.51 -3.04,0 -5.51,-2.47 -5.51,-5.51 v -44.13 c 0,-3.04 2.47,-5.51 5.51,-5.51 3.05,0 5.52,2.47 5.52,5.51 z m 2.57,86.96 c 2.86,14.08 8.01,27.32 15.05,39.33 1.54,2.63 0.66,6.01 -1.97,7.55 -2.63,1.54 -6.01,0.66 -7.55,-1.97 -7.64,-13.03 -13.24,-27.42 -16.34,-42.72 -0.61,-2.98 1.32,-5.89 4.31,-6.5 2.98,-0.6 5.89,1.33 6.5,4.31 z m 42,71.7 c 10.6,9.17 22.71,16.64 35.9,21.99 2.83,1.14 4.19,4.36 3.04,7.18 -1.14,2.82 -4.36,4.19 -7.18,3.04 -14.33,-5.8 -27.48,-13.91 -38.98,-23.86 -2.3,-2 -2.56,-5.48 -0.56,-7.79 1.99,-2.3 5.47,-2.55 7.78,-0.56 z m 76.99,31.16 c 2.4,0.13 4.81,0.2 7.24,0.2 h 36.58 c 3.04,0 5.51,2.47 5.51,5.51 0,3.05 -2.47,5.52 -5.51,5.52 h -36.58 c -2.63,0 -5.25,-0.07 -7.85,-0.22 -3.04,-0.16 -5.37,-2.77 -5.2,-5.81 0.17,-3.04 2.77,-5.37 5.81,-5.2 z m 87.94,0.2 h 44.12 c 3.05,0 5.52,2.47 5.52,5.51 0,3.05 -2.47,5.52 -5.52,5.52 h -44.12 c -3.05,0 -5.52,-2.47 -5.52,-5.52 0,-3.04 2.47,-5.51 5.52,-5.51 z m 88.25,0 h 44.12 c 3.05,0 5.52,2.47 5.52,5.51 0,3.05 -2.47,5.52 -5.52,5.52 h -44.12 c -3.05,0 -5.52,-2.47 -5.52,-5.52 0,-3.04 2.47,-5.51 5.52,-5.51 z m 88.25,0 h 44.12 c 3.05,0 5.52,2.47 5.52,5.51 0,3.05 -2.47,5.52 -5.52,5.52 h -44.12 c -3.05,0 -5.52,-2.47 -5.52,-5.52 0,-3.04 2.47,-5.51 5.52,-5.51 z m 88.25,0 h 44.12 c 3.05,0 5.52,2.47 5.52,5.51 0,3.05 -2.47,5.52 -5.52,5.52 h -44.12 c -3.05,0 -5.52,-2.47 -5.52,-5.52 0,-3.04 2.47,-5.51 5.52,-5.51 z m 88.24,0 h 44.13 c 3.04,0 5.51,2.47 5.51,5.51 0,3.05 -2.47,5.52 -5.51,5.52 h -44.13 c -3.04,0 -5.51,-2.47 -5.51,-5.52 0,-3.04 2.47,-5.51 5.51,-5.51 z m 88.25,0 h 44.13 c 3.04,0 5.51,2.47 5.51,5.51 0,3.05 -2.47,5.52 -5.51,5.52 h -44.13 c -3.04,0 -5.51,-2.47 -5.51,-5.52 0,-3.04 2.47,-5.51 5.51,-5.51 z m 88.25,0 h 44.13 c 3.04,0 5.51,2.47 5.51,5.51 0,3.05 -2.47,5.52 -5.51,5.52 h -44.13 c -3.05,0 -5.51,-2.47 -5.51,-5.52 0,-3.04 2.46,-5.51 5.51,-5.51 z m 88.25,0 h 44.12 c 3.05,0 5.52,2.47 5.52,5.51 0,3.05 -2.47,5.52 -5.52,5.52 h -44.12 c -3.05,0 -5.52,-2.47 -5.52,-5.52 0,-3.04 2.47,-5.51 5.52,-5.51 z m 88.25,0 h 44.12 c 3.05,0 5.52,2.47 5.52,5.51 0,3.05 -2.47,5.52 -5.52,5.52 h -44.12 c -3.05,0 -5.52,-2.47 -5.52,-5.52 0,-3.04 2.47,-5.51 5.52,-5.51 z m 88.25,0 h 44.12 c 3.05,0 5.52,2.47 5.52,5.51 0,3.05 -2.47,5.52 -5.52,5.52 h -44.12 c -3.05,0 -5.52,-2.47 -5.52,-5.52 0,-3.04 2.47,-5.51 5.52,-5.51 z m 88.24,0 h 3.83 c 13.26,0 26.04,-2 38.06,-5.71 2.91,-0.9 6,0.73 6.9,3.64 0.9,2.91 -0.73,6 -3.64,6.9 -13.07,4.03 -26.95,6.2 -41.32,6.2 h -3.83 c -3.04,0 -5.51,-2.47 -5.51,-5.52 0,-3.04 2.47,-5.51 5.51,-5.51 z m 79.54,-24.58 c 11.42,-8.31 21.42,-18.46 29.57,-30 1.76,-2.48 5.2,-3.08 7.69,-1.32 2.49,1.76 3.08,5.2 1.32,7.69 -8.85,12.52 -19.7,23.53 -32.09,32.55 -2.47,1.79 -5.92,1.24 -7.71,-1.22 -1.79,-2.46 -1.25,-5.91 1.22,-7.7 z m 47.91,-67.9 c 3.37,-11.51 5.19,-23.7 5.19,-36.32 0,-3.05 2.47,-5.52 5.51,-5.52 3.05,0 5.52,2.47 5.52,5.52 0,13.68 -1.97,26.91 -5.64,39.42 -0.86,2.92 -3.92,4.6 -6.84,3.74 -2.93,-0.85 -4.6,-3.92 -3.74,-6.84"
         style="fill:#1d2a30;fill-opacity:1;fill-rule:nonzero;stroke:none"
         id="path18" /><path
         d="M 4110.59,267.641 C 4110.59,119.832 3253.12,0 2195.38,0 1137.63,0 280.16,119.832 280.16,267.641 c 0,147.808 857.47,267.64 1915.22,267.64 1057.74,0 1915.21,-119.832 1915.21,-267.64"
         style="fill:#73cd91;fill-opacity:1;fill-rule:nonzero;stroke:none"
         id="path20" /><path
         d="M 2195.38,0 C 1137.63,0 280.16,119.832 280.16,267.641 c 0,147.808 857.47,267.64 1915.22,267.64 1057.74,0 1915.21,-119.832 1915.21,-267.64 C 4110.59,119.832 3253.12,0 2195.38,0"
         style="fill:#bde7c5;fill-opacity:1;fill-rule:nonzero;stroke:none"
         id="path22" /><path
         d="m 4000.78,3386.38 v -1800.6 c 0,-122.56 -99.4,-221.95 -221.94,-221.95 H 611.926 c -122.559,0 -221.949,99.39 -221.949,221.95 v 1800.6 c 0,5.3 0.226,10.48 0.668,15.66 7.941,115.28 104.019,206.39 221.281,206.39 H 3778.84 c 117.25,0 213.34,-91.11 221.27,-206.39 0.44,-5.18 0.67,-10.36 0.67,-15.66"
         style="fill:#ffffff;fill-opacity:1;fill-rule:nonzero;stroke:none"
         id="path24" /><path
         d="m 4000.78,3386.38 h -5.52 v -1800.6 c 0,-59.77 -24.22,-113.84 -63.4,-153.03 -39.18,-39.18 -93.26,-63.4 -153.02,-63.4 H 611.926 c -59.774,0 -113.848,24.22 -153.031,63.4 -39.18,39.18 -63.399,93.26 -63.403,153.03 v 1800.6 c 0,5.14 0.219,10.17 0.645,15.2 l 0.008,0.08 c 7.742,112.4 101.441,201.27 215.781,201.26 H 3778.84 c 114.33,0.01 208.03,-88.86 215.77,-201.26 l 0.01,-0.08 c 0.43,-5.03 0.64,-10.06 0.64,-15.2 h 5.52 5.51 c 0,5.45 -0.23,10.8 -0.68,16.13 l -5.5,-0.47 5.51,0.38 c -8.15,118.17 -106.61,211.52 -226.78,211.53 H 611.926 c -120.184,-0.01 -218.641,-93.36 -226.785,-211.53 l 5.504,-0.38 -5.5,0.47 c -0.45,-5.33 -0.68,-10.68 -0.68,-16.13 v -1800.6 c 0.004,-125.6 101.855,-227.46 227.461,-227.47 H 3778.84 c 125.59,0.01 227.45,101.87 227.45,227.47 v 1800.6 h -5.51"
         style="fill:#1d2a30;fill-opacity:1;fill-rule:nonzero;stroke:none"
         id="path26" /><path
         d="M 3696.09,1447.55 H 705.98 c -114.875,0 -208.003,93.13 -208.003,208 V 3318.86 H 3904.09 V 1655.55 c 0,-114.87 -93.13,-208 -208,-208"
         style="fill:#1d2a30;fill-opacity:1;fill-rule:nonzero;stroke:none"
         id="path28" /><path
         d="m 3696.04,1453.01 h -320.72 c -19.69,43.91 -41.41,88.78 -64.8,131.86 l 84.43,60.47 -56.81,133.6 c 18.09,22.17 33.43,46.55 45.56,72.47 l 144.83,7.94 22.07,132.93 -134.58,54.16 c -3.09,28.35 -9.6,56.15 -19.3,82.95 l 96.85,107.88 -78.44,109.65 -133.58,-56.69 c -22.17,17.76 -46.33,32.76 -72.14,44.78 l -7.83,144.95 -133.04,21.95 -54.49,-134.03 c -28.24,-3.31 -55.93,-9.82 -82.63,-19.41 l -21.88,19.58 c -0.71,26.4 7.83,55.26 7.83,55.26 l -17.22,15.19 c 59.8,23.06 109.91,79.08 102.7,147.1 -2.97,28.04 -23.58,48.2 -50.33,54.86 -6.32,1.57 -12.53,2.25 -18.64,2.25 -28.04,0 -54.13,-14.46 -80.4,-24.36 -12.91,-4.87 -25.77,-6.81 -38.59,-6.81 -45.1,-0.01 -89.85,23.99 -135.73,28.92 -9.33,1 -19.04,1.61 -28.85,1.61 -43.22,0 -88.26,-11.71 -109.65,-52.55 0,0 -90.53,-10.63 -130.17,-84.98 -39.66,-74.35 35.72,-177.28 35.72,-177.28 0,0 4.32,5.23 11.79,7.75 l -1.8,-1.91 c 0,0 -21.56,-19.06 -13,-67.21 1.76,-9.86 3.99,-19.44 6.56,-28.46 l -58.99,-2.76 c -10.9,18.17 -23.95,35.02 -38.72,50.04 l 31.93,103.1 -87.03,49.86 -72.81,-79.45 c -20.5,5.02 -41.53,7.65 -62.7,7.99 l -50.41,95.56 -96.74,-26.32 5.11,-107.92 c -18.17,-10.91 -35.01,-23.95 -50.14,-38.69 l -103.14,31.84 -3.37,-5.86 v 139.44 h 79.63 l 39.38,175.83 c 33.98,9.6 66.63,23.28 97.41,40.48 l 152.12,-96.73 118.36,118.35 -96.08,152.12 c 17.09,30.89 30.67,63.54 40.27,97.52 l 176.05,39.27 v 167.45 l -176.05,39.05 c -9.6,33.98 -23.06,66.85 -40.27,97.73 l 17.75,27.96 H 3898.57 V 1655.54 c 0,-55.91 -22.65,-106.51 -59.3,-143.19 -36.67,-36.67 -87.26,-59.34 -143.23,-59.34 m -1532.08,0 h -301.21 v 500.25 l 64.08,3.03 c 10.76,-18.23 23.7,-35.05 38.58,-50.11 l -32.09,-102.57 87.03,-49.86 72.44,78.77 c 20.56,-5.16 41.59,-7.79 62.84,-7.92 l 50.27,-95.62 34.08,9.27 c -27.09,-38.71 -55.05,-169.58 -76.02,-285.24 m -1620.206,81.42 c -15.906,21.3 -27.715,45.83 -34.27,72.43 l 34.27,-38.03 v -34.4 m -40.207,157.95 V 1851 l 23.715,-6.72 c 4.078,-18.12 9.597,-35.87 16.492,-53.07 v -42.57 l -40.207,-56.26 m 1798.173,82.79 -3.33,72.31 -0.72,15.79 c 18.37,10.83 35.33,23.84 50.63,38.74 l 103.06,-32.04 42.59,74.45 7.28,12.59 -79.85,72.72 c 5.17,20.56 7.84,41.69 8.07,62.9 l 95.48,50.2 -7.41,27.2 c 3.36,-0.1 5.48,-0.11 5.48,-0.11 0,0 24.28,-52.63 46.15,-85.88 l -10.58,-63.64 21.85,-8.82 3.33,-1.34 c 0.34,-7.03 0.65,-14.28 0.91,-21.46 -16.54,-3.67 -34.39,-12.08 -46.35,-30.28 -0.16,-0.24 -0.32,-0.47 -0.47,-0.72 -0.03,-0.04 -0.06,-0.09 -0.09,-0.14 -0.24,-0.37 -0.47,-0.74 -0.7,-1.12 v 0 c -8.28,-21.44 -9.97,-49.09 -9.97,-68.12 0,-13.18 0.81,-22.23 0.81,-22.23 0,0 -1.98,-0.77 -5.73,-2.1 -27.27,-10.17 -146.08,-54.86 -220.44,-88.9 m 752.66,57.61 c -54.27,0 -107.74,25.29 -141.71,72.79 -56.03,78.1 -37.95,186.86 40.16,242.79 30.7,22.01 66.13,32.58 101.21,32.58 54.27,0 107.72,-25.29 141.69,-72.72 56.03,-78.22 37.95,-186.99 -40.16,-242.92 -30.7,-21.95 -66.12,-32.52 -101.19,-32.52 m -895.85,133.52 c -57.05,0 -109.29,37.95 -124.95,95.55 -18.81,69.12 21.99,140.34 90.97,159.08 11.4,3.1 22.86,4.58 34.13,4.58 57.06,0 109.29,-37.95 124.95,-95.55 18.81,-69.12 -21.99,-140.33 -90.97,-159.08 -11.4,-3.1 -22.86,-4.58 -34.13,-4.58 m -1654.983,67.08 v 1279.91 h 943.843 l 17.02,-27.07 c -17.32,-30.78 -30.78,-63.54 -40.16,-97.62 l -176.05,-39.17 v -167.45 l 176.05,-39.27 c 8.87,-32.42 21.37,-63.77 37.34,-93.28 H 680.367 c -75.453,0 -136.609,-61.15 -136.613,-136.61 v -437.5 l -39.66,-35.68 39.66,-70.09 v -115.46 c -1.93,-4.95 -3.75,-9.95 -5.461,-15 l -34.746,-5.71 m 1359.203,51.66 v 106.41 l 33.32,-30.29 c -5.16,-20.55 -7.79,-41.58 -7.88,-62.73 l -25.44,-13.39 m -2.88,763.47 c -119.47,0 -216.32,96.85 -216.32,216.32 0,119.46 96.85,216.31 216.32,216.31 119.46,0 216.32,-96.85 216.32,-216.31 0,-119.47 -96.86,-216.32 -216.32,-216.32"
         style="fill:#45555c;fill-opacity:1;fill-rule:nonzero;stroke:none"
         id="path30" /><path
         d="M 4000.11,3402.04 H 390.641 c 7.945,115.28 104.023,206.39 221.285,206.39 H 3778.84 c 117.25,0 213.34,-91.11 221.27,-206.39"
         style="fill:#73cd91;fill-opacity:1;fill-rule:nonzero;stroke:none"
         id="path32" /><path
         d="m 4000.11,3402.04 v 5.52 H 390.641 v -5.52 l 5.504,-0.38 c 7.742,112.4 101.441,201.27 215.781,201.26 H 3778.84 c 114.33,0.01 208.04,-88.86 215.77,-201.26 l 5.5,0.38 v 5.52 -5.52 l 5.51,0.38 c -8.15,118.17 -106.61,211.52 -226.78,211.53 H 611.926 v 0 c -120.184,-0.01 -218.641,-93.36 -226.785,-211.53 l -0.407,-5.89 H 4006.02 l -0.4,5.89 -5.51,-0.38"
         style="fill:#1d2a30;fill-opacity:1;fill-rule:nonzero;stroke:none"
         id="path34" /><path
         d="m 834.191,3505.24 c 0,-21.71 -17.601,-39.31 -39.308,-39.31 -21.715,0 -39.32,17.6 -39.32,39.31 0,21.71 17.605,39.31 39.32,39.31 21.707,0 39.308,-17.6 39.308,-39.31"
         style="fill:#1d2a30;fill-opacity:1;fill-rule:nonzero;stroke:none"
         id="path36" /><path
         d="m 1000.41,3505.24 c 0,-21.71 -17.594,-39.31 -39.308,-39.31 -21.715,0 -39.313,17.6 -39.313,39.31 0,21.71 17.598,39.31 39.313,39.31 21.714,0 39.308,-17.6 39.308,-39.31"
         style="fill:#1d2a30;fill-opacity:1;fill-rule:nonzero;stroke:none"
         id="path38" /><path
         d="m 1166.64,3505.24 c 0,-21.71 -17.6,-39.31 -39.31,-39.31 -21.72,0 -39.32,17.6 -39.32,39.31 0,21.71 17.6,39.31 39.32,39.31 21.71,0 39.31,-17.6 39.31,-39.31"
         style="fill:#1d2a30;fill-opacity:1;fill-rule:nonzero;stroke:none"
         id="path40" /><path
         d="m 3904.09,3318.8 h -5.52 V 1655.54 c 0,-55.91 -22.65,-106.51 -59.3,-143.19 -36.67,-36.67 -87.26,-59.34 -143.23,-59.34 H 705.965 c -98.36,-0.01 -180.297,70.25 -198.555,163.22 l -0.32,1.65 -1.297,1.3 -3.902,-3.9 h 5.515 v 0.44 0.54 l -0.101,0.53 c -2.469,12.55 -3.758,25.54 -3.758,38.75 V 3313.29 H 3904.09 v 5.51 h -5.52 5.52 v 5.52 H 492.516 V 1655.54 c 0,-13.92 1.355,-27.63 3.964,-40.88 l 5.411,1.06 h -5.512 v -0.44 -2.29 l 1.719,-1.72 3.902,3.9 -5.41,-1.06 c 19.254,-98.09 105.644,-172.12 209.375,-172.13 H 3696.04 c 117.99,0 213.56,95.68 213.56,213.56 v 1668.78 h -5.51 v -5.52"
         style="fill:#1d2a30;fill-opacity:1;fill-rule:nonzero;stroke:none"
         id="path42" /><path
         d="m 3796.5,2771.98 c -56.69,0 -102.59,45.89 -102.59,102.59 0,56.58 45.9,102.59 102.59,102.59 56.7,0 102.6,-46.01 102.6,-102.59 0,-56.7 -45.9,-102.59 -102.6,-102.59 z m 104.36,289.56 c -14.56,8.16 -30.11,14.57 -46.22,19.09 l -18.65,83.5 h -79.42 l -18.53,-83.5 c -16.22,-4.42 -31.77,-10.93 -46.33,-19.09 l -71.7,45.89 -56.15,-56.15 45.12,-71.7 c -8.28,-14.67 -14.68,-30.22 -19.09,-46.33 l -83.51,-18.53 v -79.43 l 83.51,-18.64 c 4.41,-16.32 10.81,-31.99 19.09,-46.66 l -45.89,-72.14 56.15,-56.15 72.14,45.89 c 14.56,-8.27 30.11,-14.67 46.33,-19.19 l 18.54,-83.4 h 79.42 l 18.63,83.4 c 16.12,4.52 31.66,11.03 46.22,19.19 l 3.65,-2.31 v 378.36 l -3.31,-2.1"
         style="fill:#1d2a30;fill-opacity:1;fill-rule:nonzero;stroke:none"
         id="path44" /><path
         d="m 1859.87,2848.51 c -119.47,0 -216.32,96.85 -216.32,216.32 0,119.46 96.85,216.31 216.32,216.31 119.46,0 216.32,-96.85 216.32,-216.31 0,-119.47 -96.86,-216.32 -216.32,-216.32 m 610.02,132.59 v 167.45 l -176.05,39.05 c -9.6,33.98 -23.06,66.85 -40.27,97.73 l 21.29,33.54 h -830.97 l 20.52,-32.65 c -17.32,-30.78 -30.78,-63.54 -40.16,-97.62 l -176.05,-39.17 v -167.45 l 176.05,-39.27 c 9.38,-34.31 22.84,-67.4 40.16,-98.4 l -96.75,-152.12 118.48,-118.35 152,96.73 c 30.89,-17.31 63.65,-30.88 97.74,-40.48 l 39.05,-175.83 h 167.45 l 39.38,175.83 c 33.98,9.6 66.63,23.28 97.41,40.48 l 152.12,-96.73 118.36,118.35 -96.08,152.12 c 17.09,30.89 30.67,63.54 40.27,97.52 l 176.05,39.27"
         style="fill:#1d2a30;fill-opacity:1;fill-rule:nonzero;stroke:none"
         id="path46" /><path
         d="m 1006.45,2038.76 c -63.536,70.6 -172.302,76.34 -242.903,12.8 -70.602,-63.54 -76.336,-172.31 -12.797,-242.91 63.539,-70.59 172.305,-76.22 242.902,-12.68 70.608,63.53 76.338,172.2 12.798,242.79 m 352.78,-207.49 7.05,132.81 -137.66,38.83 c -6.4,27.25 -15.89,53.83 -28.24,78.99 l 83.17,116.81 -89.13,98.95 -124.65,-70.49 c -23.83,14.89 -49.2,27.14 -75.895,36.29 l -23.828,141.2 -132.813,7.06 -38.39,-138.11 c -27.356,-6.06 -53.832,-15.55 -78.977,-28.02 l -116.711,83.18 -99.062,-89.13 70.601,-124.76 c -15.226,-23.73 -27.359,-49.1 -36.402,-75.79 l -40.266,-6.62 v -179.91 l 29.235,-8.28 c 6.179,-27.46 15.668,-54.04 28.238,-79.2 l -57.473,-80.42 3.864,-68.94 v -0.44 l 0.109,-0.11 59.238,-65.74 124.871,70.48 c 23.825,-15.33 49.422,-27.68 76.118,-36.73 l 22.722,-135.57 v -0.12 l 1.102,-5.62 132.812,-7.06 3.532,12.68 v 0.12 l 34.859,125.31 c 27.578,6.17 54.056,15.55 79.426,28.02 l 116.48,-83.07 99.06,89.03 -70.38,124.87 c 15.01,23.71 27.14,49.08 35.97,75.67 l 141.42,23.83"
         style="fill:#1d2a30;fill-opacity:1;fill-rule:nonzero;stroke:none"
         id="path48" /><path
         d="m 2192.66,1970.88 c -69.12,-18.81 -140.33,21.99 -159.08,90.97 -18.81,69.12 21.99,140.34 90.97,159.08 69.12,18.81 140.33,-21.99 159.08,-90.97 18.81,-69.12 -21.99,-140.33 -90.97,-159.08 m 228.72,58.85 c 5.17,20.56 7.84,41.69 8.07,62.9 l 95.48,50.2 -26.39,96.88 -107.77,-5.04 c -10.9,18.17 -23.95,35.02 -38.72,50.04 l 31.93,103.1 -87.03,49.86 -72.81,-79.45 c -20.5,5.02 -41.53,7.65 -62.7,7.99 l -50.41,95.56 -96.74,-26.32 5.11,-107.92 c -18.17,-10.91 -35.01,-23.95 -50.14,-38.69 l -103.14,31.84 -49.92,-86.9 79.87,-72.62 c -5.16,-20.55 -7.79,-41.58 -7.88,-62.73 l -95.66,-50.37 26.38,-96.88 107.92,5.11 c 10.76,-18.23 23.7,-35.05 38.58,-50.11 l -32.09,-102.57 87.03,-49.86 72.44,78.77 c 20.56,-5.16 41.59,-7.79 62.84,-7.92 l 50.27,-95.62 96.73,26.32 -4.24,92.18 -0.72,15.79 c 18.37,10.83 35.33,23.84 50.63,38.74 l 103.06,-32.04 42.59,74.45 7.28,12.59 -79.85,72.72"
         style="fill:#1d2a30;fill-opacity:1;fill-rule:nonzero;stroke:none"
         id="path50" /><path
         d="m 3155.57,1865.3 c -78.2,-55.92 -186.97,-37.94 -242.9,40.27 -56.03,78.1 -37.95,186.86 40.16,242.79 78.2,56.05 186.97,37.95 242.9,-40.14 56.03,-78.22 37.95,-186.99 -40.16,-242.92 m 372.96,-5.95 22.07,132.93 -134.58,54.16 c -3.09,28.35 -9.6,56.15 -19.3,82.95 l 96.85,107.88 -78.44,109.65 -133.58,-56.69 c -22.17,17.76 -46.33,32.76 -72.14,44.78 l -7.83,144.95 -133.04,21.95 -54.49,-134.03 c -28.24,-3.31 -55.93,-9.82 -82.63,-19.41 l -108.21,96.85 -109.54,-78.43 56.82,-133.48 c -15.67,-19.63 -29.24,-40.59 -40.49,-62.87 -1.55,-3.09 -3.09,-6.18 -4.52,-9.27 l -144.84,-8.06 -22.07,-132.81 21.85,-8.82 112.73,-45.45 c 3.1,-28.13 9.49,-55.92 19.31,-82.62 l -96.86,-108.21 78.44,-109.55 133.58,56.93 c 22.07,-17.98 46.33,-33.1 72.04,-45.12 l 7.5,-144.29 132.93,-21.95 54.37,133.04 c 28.35,3.08 56.15,9.6 82.85,19.41 l 107.99,-96.96 109.65,78.53 -56.81,133.6 c 18.09,22.17 33.43,46.55 45.56,72.47 l 144.83,7.94"
         style="fill:#1d2a30;fill-opacity:1;fill-rule:nonzero;stroke:none"
         id="path52" /><path
         d="M 1726.14,1133.78 H 680.367 c -72.406,0 -131.097,58.69 -131.097,131.1 v 1447.94 c 0,72.41 58.691,131.1 131.097,131.1 H 1726.14 c 72.4,0 131.1,-58.69 131.1,-131.1 V 1264.88 c 0,-72.41 -58.7,-131.1 -131.1,-131.1"
         style="fill:#73cd91;fill-opacity:1;fill-rule:nonzero;stroke:none"
         id="path54" /><path
         d="m 1726.14,1133.78 v 5.52 H 680.367 c -34.695,0 -66.058,14.04 -88.801,36.78 -22.734,22.74 -36.777,54.1 -36.781,88.8 v 1447.94 c 0.004,34.7 14.047,66.06 36.781,88.8 22.743,22.74 54.106,36.78 88.801,36.78 H 1726.14 c 34.7,0 66.06,-14.04 88.8,-36.78 22.74,-22.74 36.78,-54.1 36.78,-88.8 V 1264.88 c 0,-34.7 -14.04,-66.06 -36.78,-88.8 -22.74,-22.74 -54.1,-36.78 -88.8,-36.78 v -5.52 -5.51 c 75.45,0 136.61,61.15 136.61,136.61 v 1447.94 c 0,75.46 -61.16,136.61 -136.61,136.61 H 680.367 c -75.453,0 -136.609,-61.15 -136.613,-136.61 V 1264.88 c 0.004,-75.46 61.16,-136.61 136.613,-136.61 H 1726.14 v 5.51"
         style="fill:#1d2a30;fill-opacity:1;fill-rule:nonzero;stroke:none"
         id="path56" /><path
         d="m 1726.14,1133.78 v 5.52 H 680.367 c -34.695,0 -66.058,14.04 -88.801,36.78 -22.734,22.74 -36.777,54.1 -36.781,88.8 v 1447.94 c 0.004,34.7 14.047,66.06 36.781,88.8 22.743,22.74 54.106,36.78 88.801,36.78 H 1726.14 c 34.7,0 66.06,-14.04 88.8,-36.78 22.74,-22.74 36.78,-54.1 36.78,-88.8 V 1264.88 c 0,-34.7 -14.04,-66.06 -36.78,-88.8 -22.74,-22.74 -54.1,-36.78 -88.8,-36.78 v -5.52 0"
         style="fill:#4ebe7b;fill-opacity:1;fill-rule:nonzero;stroke:none"
         id="path58" /><path
         d="m 1726.14,1133.78 v 0 5.52 c 34.7,0 66.06,14.04 88.8,36.78 22.74,22.74 36.78,54.1 36.78,88.8 v 1447.94 c 0,34.7 -14.04,66.06 -36.78,88.8 -22.74,22.74 -54.1,36.78 -88.8,36.78 H 680.367 c -34.695,0 -66.058,-14.04 -88.801,-36.78 -22.734,-22.74 -36.777,-54.1 -36.781,-88.8 V 1264.88 c 0.004,-34.7 14.047,-66.06 36.781,-88.8 22.743,-22.74 54.106,-36.78 88.801,-36.78 H 1726.14 v -5.52 H 680.367 c -72.406,0 -131.097,58.69 -131.097,131.1 v 1447.94 c 0,72.41 58.691,131.1 131.097,131.1 H 1726.14 c 72.4,0 131.1,-58.69 131.1,-131.1 V 1264.88 c 0,-72.41 -58.7,-131.1 -131.1,-131.1"
         style="fill:#182124;fill-opacity:1;fill-rule:nonzero;stroke:none"
         id="path60" /><path
         d="M 1979,2583.65 V 1135.71 c 0,-72.47 -58.69,-131.15 -131.16,-131.15 H 802.094 c -72.364,0 -131.051,58.68 -131.051,131.15 v 1447.94 c 0,72.37 58.687,131.05 131.051,131.05 H 1847.84 c 72.47,0 131.16,-58.68 131.16,-131.05"
         style="fill:#ffffff;fill-opacity:1;fill-rule:nonzero;stroke:none"
         id="path62" /><path
         d="m 1979,2583.65 h -5.52 V 1135.71 c 0,-34.73 -14.05,-66.1 -36.79,-88.85 -22.74,-22.74 -54.12,-36.78 -88.85,-36.78 H 802.094 c -34.676,0 -66.024,14.04 -88.762,36.78 -22.727,22.75 -36.769,54.12 -36.773,88.85 v 1447.94 c 0.004,34.68 14.043,66.03 36.773,88.77 22.734,22.72 54.086,36.77 88.762,36.77 H 1847.84 c 34.73,0 66.11,-14.05 88.86,-36.78 22.74,-22.73 36.78,-54.08 36.78,-88.76 h 5.52 5.51 c 0,75.42 -61.15,136.57 -136.67,136.57 H 802.094 c -75.414,0 -136.563,-61.15 -136.567,-136.57 V 1135.71 C 665.531,1060.2 726.68,999.051 802.094,999.051 H 1847.84 c 75.52,0 136.67,61.149 136.67,136.659 V 2583.65 H 1979"
         style="fill:#1d2a30;fill-opacity:1;fill-rule:nonzero;stroke:none"
         id="path64" /><path
         d="m 1979,2583.65 v -77.54 H 671.043 v 77.54 c 0,72.37 58.687,131.05 131.051,131.05 H 1847.84 c 72.47,0 131.16,-58.68 131.16,-131.05"
         style="fill:#73cd91;fill-opacity:1;fill-rule:nonzero;stroke:none"
         id="path66" /><path
         d="m 1979,2583.65 h -5.52 v -72.02 H 676.559 v 72.02 c 0.004,34.68 14.043,66.03 36.773,88.77 22.734,22.72 54.086,36.77 88.762,36.77 H 1847.84 c 34.73,0 66.11,-14.05 88.86,-36.78 22.74,-22.73 36.78,-54.08 36.78,-88.76 h 5.52 5.51 c 0,75.42 -61.15,136.57 -136.67,136.57 H 802.094 c -75.414,0 -136.563,-61.15 -136.567,-136.57 v -83.06 H 1984.51 v 83.06 H 1979"
         style="fill:#1d2a30;fill-opacity:1;fill-rule:nonzero;stroke:none"
         id="path68" /><path
         d="M 1115.83,2362.32 H 794.047 v 53.97 h 321.783 v -53.97"
         style="fill:#73cd91;fill-opacity:1;fill-rule:nonzero;stroke:none"
         id="path70" /><path
         d="M 1115.83,1878.43 H 794.047 v 53.97 h 321.783 v -53.97"
         style="fill:#73cd91;fill-opacity:1;fill-rule:nonzero;stroke:none"
         id="path72" /><path
         d="M 1115.83,1439.63 H 794.047 v 53.98 h 321.783 v -53.98"
         style="fill:#73cd91;fill-opacity:1;fill-rule:nonzero;stroke:none"
         id="path74" /><path
         d="M 1707.96,2243.07 H 794.047 v 39.59 h 913.913 v -39.59"
         style="fill:#1d2a30;fill-opacity:1;fill-rule:nonzero;stroke:none"
         id="path76" /><path
         d="M 1543.17,2168.31 H 794.047 v 38.58 h 749.123 v -38.58"
         style="fill:#1d2a30;fill-opacity:1;fill-rule:nonzero;stroke:none"
         id="path78" /><path
         d="M 1641.27,2093.83 H 794.047 v 38.57 h 847.223 v -38.57"
         style="fill:#1d2a30;fill-opacity:1;fill-rule:nonzero;stroke:none"
         id="path80" /><path
         d="M 1641.27,2019.42 H 794.047 v 38.57 h 847.223 v -38.57"
         style="fill:#1d2a30;fill-opacity:1;fill-rule:nonzero;stroke:none"
         id="path82" /><path
         d="M 1707.96,1804.28 H 794.047 v 39.58 h 913.913 v -39.58"
         style="fill:#1d2a30;fill-opacity:1;fill-rule:nonzero;stroke:none"
         id="path84" /><path
         d="M 1543.17,1729.51 H 794.047 v 38.58 h 749.123 v -38.58"
         style="fill:#1d2a30;fill-opacity:1;fill-rule:nonzero;stroke:none"
         id="path86" /><path
         d="M 1641.27,1655.03 H 794.047 v 38.58 h 847.223 v -38.58"
         style="fill:#1d2a30;fill-opacity:1;fill-rule:nonzero;stroke:none"
         id="path88" /><path
         d="M 1707.96,1322.41 H 794.047 V 1362 h 913.913 v -39.59"
         style="fill:#1d2a30;fill-opacity:1;fill-rule:nonzero;stroke:none"
         id="path90" /><path
         d="M 1543.17,1247.66 H 794.047 v 38.57 h 749.123 v -38.57"
         style="fill:#1d2a30;fill-opacity:1;fill-rule:nonzero;stroke:none"
         id="path92" /><path
         d="M 1641.27,1173.17 H 794.047 v 38.58 h 847.223 v -38.58"
         style="fill:#1d2a30;fill-opacity:1;fill-rule:nonzero;stroke:none"
         id="path94" /><path
         d="m 3453.02,3718.68 v -585.2 c 0,-86.37 -69.93,-156.31 -156.3,-156.31 H 1948.84 c -86.27,0 -156.32,69.94 -156.32,156.31 v 585.2 c 0,86.37 70.05,156.43 156.32,156.43 h 1347.88 c 86.37,0 156.3,-70.06 156.3,-156.43"
         style="fill:#ffffff;fill-opacity:1;fill-rule:nonzero;stroke:none"
         id="path96" /><path
         d="m 3453.02,3718.68 h -5.51 v -585.2 c 0,-41.68 -16.86,-79.34 -44.15,-106.64 -27.3,-27.29 -64.96,-44.15 -106.64,-44.15 H 1948.84 c -41.63,0 -79.3,16.86 -106.61,44.15 -27.31,27.3 -44.19,64.96 -44.19,106.64 v 585.2 c 0,41.68 16.88,79.37 44.19,106.7 27.32,27.32 64.98,44.21 106.61,44.21 h 1347.88 c 41.68,0 79.34,-16.89 106.64,-44.2 27.29,-27.33 44.15,-65.02 44.15,-106.71 h 5.51 5.52 c 0,89.42 -72.4,161.94 -161.82,161.94 H 1948.84 c -89.32,-0.01 -161.83,-72.51 -161.83,-161.94 v -585.2 c 0,-89.42 72.51,-161.82 161.83,-161.82 h 1347.88 c 89.42,0 161.82,72.41 161.82,161.82 v 585.2 h -5.52"
         style="fill:#1d1b19;fill-opacity:1;fill-rule:nonzero;stroke:none"
         id="path98" /><path
         d="m 3453.02,3718.68 v -13.34 h -1660.5 v 13.34 c 0,86.37 70.05,156.43 156.32,156.43 h 1347.88 c 86.37,0 156.3,-70.06 156.3,-156.43"
         style="fill:#73cd91;fill-opacity:1;fill-rule:nonzero;stroke:none"
         id="path100" /><path
         d="m 3453.02,3718.68 h -5.51 v -7.83 H 1798.04 v 7.83 c 0,41.68 16.88,79.37 44.19,106.7 27.32,27.32 64.98,44.21 106.61,44.21 h 1347.88 c 41.68,0 79.34,-16.89 106.64,-44.2 27.29,-27.33 44.15,-65.02 44.15,-106.71 h 5.51 5.52 c 0,89.42 -72.4,161.94 -161.82,161.94 H 1948.84 c -89.32,-0.01 -161.83,-72.51 -161.83,-161.94 v -18.86 h 1671.53 v 18.86 h -5.52"
         style="fill:#1d2a30;fill-opacity:1;fill-rule:nonzero;stroke:none"
         id="path102" /><path
         d="m 2036.47,3762.26 c -9.35,-9.35 -24.51,-9.35 -33.87,0 -9.35,9.35 -9.35,24.51 0,33.85 9.36,9.35 24.52,9.35 33.87,0 9.34,-9.34 9.34,-24.5 0,-33.85"
         style="fill:#1d2a30;fill-opacity:1;fill-rule:nonzero;stroke:none"
         id="path104" /><path
         d="m 2147.66,3762.26 c -9.34,-9.35 -24.5,-9.35 -33.85,0 -9.35,9.35 -9.35,24.51 0,33.85 9.35,9.35 24.51,9.35 33.85,0 9.35,-9.34 9.35,-24.5 0,-33.85"
         style="fill:#1d2a30;fill-opacity:1;fill-rule:nonzero;stroke:none"
         id="path106" /><path
         d="m 2258.86,3762.26 c -9.34,-9.35 -24.51,-9.35 -33.85,0 -9.35,9.35 -9.35,24.51 0,33.85 9.34,9.35 24.51,9.35 33.85,0 9.36,-9.34 9.36,-24.5 0,-33.85"
         style="fill:#1d2a30;fill-opacity:1;fill-rule:nonzero;stroke:none"
         id="path108" /><path
         d="m 2352.94,3134.06 h -44.12 c -3.05,0 -5.52,-2.47 -5.52,-5.52 0,-3.04 2.47,-5.51 5.52,-5.51 h 44.12 c 3.05,0 5.52,2.47 5.52,5.51 0,3.05 -2.47,5.52 -5.52,5.52 z m -88.25,0 h -44.12 c -3.05,0 -5.52,-2.47 -5.52,-5.52 0,-3.04 2.47,-5.51 5.52,-5.51 h 44.12 c 3.05,0 5.52,2.47 5.52,5.51 0,3.05 -2.47,5.52 -5.52,5.52 z m -88.25,0 h -44.12 c -3.05,0 -5.52,-2.47 -5.52,-5.52 0,-3.04 2.47,-5.51 5.52,-5.51 h 44.12 c 3.05,0 5.52,2.47 5.52,5.51 0,3.05 -2.47,5.52 -5.52,5.52 z m -88.24,0 h -44.13 c -3.05,0 -5.51,-2.47 -5.51,-5.52 0,-3.04 2.46,-5.51 5.51,-5.51 h 44.13 c 3.04,0 5.51,2.47 5.51,5.51 0,3.05 -2.47,5.52 -5.51,5.52 z m -88.25,0 h -44.13 c -3.04,0 -5.51,-2.47 -5.51,-5.52 0,-3.04 2.47,-5.51 5.51,-5.51 h 44.13 c 3.04,0 5.51,2.47 5.51,5.51 0,3.05 -2.47,5.52 -5.51,5.52 z m -88.25,0 h -7.78 v 25.31 c 0,3.05 -2.47,5.52 -5.51,5.52 -3.05,0 -5.52,-2.47 -5.52,-5.52 v -30.83 c 0,-1.45 0.59,-2.87 1.62,-3.9 1.02,-1.03 2.44,-1.61 3.9,-1.61 h 13.29 c 3.04,0 5.51,2.47 5.51,5.51 0,3.05 -2.47,5.52 -5.51,5.52 z m -7.78,69.44 v 44.12 c 0,3.05 -2.47,5.52 -5.51,5.52 -3.05,0 -5.52,-2.47 -5.52,-5.52 v -44.12 c 0,-3.05 2.47,-5.52 5.52,-5.52 3.04,0 5.51,2.47 5.51,5.52 z m 0,88.25 v 44.12 c 0,3.05 -2.47,5.52 -5.51,5.52 -3.05,0 -5.52,-2.47 -5.52,-5.52 v -44.12 c 0,-3.05 2.47,-5.52 5.52,-5.52 3.04,0 5.51,2.47 5.51,5.52 z m 0,88.25 v 44.12 c 0,3.04 -2.47,5.52 -5.51,5.52 -3.05,0 -5.52,-2.48 -5.52,-5.52 V 3380 c 0,-3.05 2.47,-5.52 5.52,-5.52 3.04,0 5.51,2.47 5.51,5.52 z m 0,88.24 v 44.13 c 0,3.04 -2.47,5.51 -5.51,5.51 -3.05,0 -5.52,-2.47 -5.52,-5.51 v -44.13 c 0,-3.04 2.47,-5.51 5.52,-5.51 3.04,0 5.51,2.47 5.51,5.51 z m 0,88.25 v 41.23 h -5.51 v -5.51 h 2.89 c 3.05,0 5.52,2.47 5.52,5.51 0,3.05 -2.47,5.52 -5.52,5.52 h -2.89 c -1.46,0 -2.88,-0.59 -3.9,-1.62 -1.03,-1.03 -1.62,-2.44 -1.62,-3.9 v -41.23 c 0,-3.04 2.47,-5.51 5.52,-5.51 3.04,0 5.51,2.47 5.51,5.51 z m 41.5,35.72 h 44.13 c 3.04,0 5.51,2.47 5.51,5.51 0,3.05 -2.47,5.52 -5.51,5.52 h -44.13 c -3.04,0 -5.51,-2.47 -5.51,-5.52 0,-3.04 2.47,-5.51 5.51,-5.51 z m 88.25,0 h 44.13 c 3.04,0 5.51,2.47 5.51,5.51 0,3.05 -2.47,5.52 -5.51,5.52 h -44.13 c -3.04,0 -5.51,-2.47 -5.51,-5.52 0,-3.04 2.47,-5.51 5.51,-5.51 z m 88.25,0 h 44.13 c 3.04,0 5.51,2.47 5.51,5.51 0,3.05 -2.47,5.52 -5.51,5.52 h -44.13 c -3.05,0 -5.51,-2.47 -5.51,-5.52 0,-3.04 2.46,-5.51 5.51,-5.51 z m 88.25,0 h 44.12 c 3.05,0 5.52,2.47 5.52,5.51 0,3.05 -2.47,5.52 -5.52,5.52 h -44.12 c -3.05,0 -5.52,-2.47 -5.52,-5.52 0,-3.04 2.47,-5.51 5.52,-5.51 z m 88.25,0 h 44.12 c 3.05,0 5.52,2.47 5.52,5.51 0,3.05 -2.47,5.52 -5.52,5.52 h -44.12 c -3.05,0 -5.52,-2.47 -5.52,-5.52 0,-3.04 2.47,-5.51 5.52,-5.51 z m 88.25,0 h 44.12 c 3.05,0 5.52,2.47 5.52,5.51 0,3.05 -2.47,5.52 -5.52,5.52 h -44.12 c -3.05,0 -5.52,-2.47 -5.52,-5.52 0,-3.04 2.47,-5.51 5.52,-5.51 z m 49,-28.21 v -44.13 c 0,-3.05 2.47,-5.51 5.52,-5.51 3.05,0 5.51,2.46 5.51,5.51 V 3564 c 0,3.04 -2.46,5.51 -5.51,5.51 -3.05,0 -5.52,-2.47 -5.52,-5.51 z m 0,-88.25 v -44.12 c 0,-3.05 2.47,-5.52 5.52,-5.52 3.05,0 5.51,2.47 5.51,5.52 v 44.12 c 0,3.04 -2.46,5.51 -5.51,5.51 -3.05,0 -5.52,-2.47 -5.52,-5.51 z m 0,-88.25 v -44.12 c 0,-3.05 2.47,-5.52 5.52,-5.52 3.05,0 5.51,2.47 5.51,5.52 v 44.12 c 0,3.05 -2.46,5.52 -5.51,5.52 -3.05,0 -5.52,-2.47 -5.52,-5.52 z m 0,-88.25 v -44.12 c 0,-3.05 2.47,-5.52 5.52,-5.52 3.05,0 5.51,2.47 5.51,5.52 v 44.12 c 0,3.05 -2.46,5.52 -5.51,5.52 -3.05,0 -5.52,-2.47 -5.52,-5.52 z m 0,-88.25 v -44.12 c 0,-3.05 2.47,-5.52 5.52,-5.52 3.05,0 5.51,2.47 5.51,5.52 V 3211 c 0,3.05 -2.46,5.52 -5.51,5.52 -3.05,0 -5.52,-2.47 -5.52,-5.52 z m 5.52,-76.94 h -44.13 c -3.04,0 -5.51,-2.47 -5.51,-5.52 0,-3.04 2.47,-5.51 5.51,-5.51 h 44.13 c 3.05,0 5.51,2.47 5.51,5.51 0,3.05 -2.46,5.52 -5.51,5.52"
         style="fill:#1d2a30;fill-opacity:1;fill-rule:nonzero;stroke:none"
         id="path110" /><path
         d="m 3149.61,3564.77 h -624.68 v 32.95 h 624.68 v -32.95"
         style="fill:#1d2a30;fill-opacity:1;fill-rule:nonzero;stroke:none"
         id="path112" /><path
         d="m 3004.1,3496.44 h -479.17 v 32.95 h 479.17 v -32.95"
         style="fill:#1d2a30;fill-opacity:1;fill-rule:nonzero;stroke:none"
         id="path114" /><path
         d="m 3238.46,3428.11 h -713.53 v 33.34 h 713.53 v -33.34"
         style="fill:#1d2a30;fill-opacity:1;fill-rule:nonzero;stroke:none"
         id="path116" /><path
         d="m 3132.52,3361.73 h -607.59 v 33.34 h 607.59 v -33.34"
         style="fill:#1d2a30;fill-opacity:1;fill-rule:nonzero;stroke:none"
         id="path118" /><path
         d="m 2664.01,316.961 c 0,0 -290.01,-83.172 -330.49,-97.512 -36.84,-13.008 -136.67,-47.98 -211.57,-37.168 -7.4,1.098 -14.56,2.641 -21.41,4.641 -75.89,22.598 -109.98,43.68 -119.9,91.437 -10.04,47.871 27.8,82.84 64.2,105.352 36.4,22.5 233.86,46 233.86,46 l 47.65,-14.012 h 0.11 l 337.55,-98.738"
         style="fill:#73cd91;fill-opacity:1;fill-rule:nonzero;stroke:none"
         id="path120" /><path
         d="m 2121.95,182.281 c -7.4,1.098 -14.56,2.641 -21.41,4.641 -75.89,22.598 -109.98,43.68 -119.9,91.437 -10.04,47.871 27.8,82.84 64.2,105.352 36.4,22.5 233.86,46 233.86,46 l 47.65,-14.012 c -43.13,-19.859 -203.96,-30.89 -239.04,-51.078 -35.08,-20.18 -52.07,-58.242 -31.33,-109.652 11.03,-27.348 40.59,-53.828 65.97,-72.688"
         style="fill:#ffffff;fill-opacity:1;fill-rule:nonzero;stroke:none"
         id="path122" /><path
         d="m 2618.99,310.492 c -0.02,-0.012 -54.51,-14.133 -119.82,-32.773 -65.35,-18.66 -141.39,-41.778 -185.08,-60.039 -41,-17.168 -100.79,-29.821 -157.65,-29.801 -30.24,-0.008 -59.67,3.57 -85,11.742 -25.34,8.168 -46.48,20.871 -60.72,38.961 -17.63,22.398 -24.59,43.277 -24.6,61.797 0.01,20.562 8.59,38.601 22.16,52.922 13.56,14.301 32.11,24.66 51.33,29.308 v 0 c 49.05,11.922 140.82,29.723 206.4,29.7 12.36,0 23.77,-0.629 33.72,-2.02 3.01,-0.418 5.8,1.691 6.22,4.699 0.42,3.024 -1.69,5.813 -4.7,6.231 -10.63,1.48 -22.51,2.121 -35.24,2.121 -67.41,-0.031 -159.31,-17.969 -209,-30.008 v 0 c -21.25,-5.16 -41.54,-16.453 -56.73,-32.434 -15.17,-15.949 -25.2,-36.796 -25.19,-60.519 v 0 c -0.01,-21.359 8.14,-44.75 26.97,-68.629 16.01,-20.309 39.22,-34 66,-42.629 26.8,-8.641 57.27,-12.269 88.38,-12.269 58.5,0.019 119.22,12.828 161.91,30.648 42.67,17.859 118.7,41.02 183.85,59.609 32.58,9.301 62.48,17.481 84.23,23.332 21.75,5.848 35.3,9.36 35.33,9.368 2.95,0.761 4.72,3.773 3.96,6.722 -0.77,2.949 -3.78,4.719 -6.72,3.961"
         style="fill:#1d2a30;fill-opacity:1;fill-rule:nonzero;stroke:none"
         id="path124" /><path
         d="m 2128.97,191.082 -0.82,0.457 c -4.22,2.422 -24.01,14.313 -42.48,32.981 -18.54,18.71 -35.4,43.941 -35.34,72.859 0,10.281 2.07,21.121 7.03,32.601 5.98,13.879 18.89,24.04 37.06,31.872 27.17,11.73 65.24,17.558 103.38,23.476 38.18,5.992 76.43,12.063 105.03,25.434 2.76,1.297 3.94,4.578 2.65,7.34 -1.3,2.75 -4.58,3.937 -7.34,2.648 -35.11,-16.578 -90.21,-21.941 -139.98,-30.668 -24.91,-4.41 -48.56,-9.703 -68.1,-18.102 -19.47,-8.371 -35.23,-20.082 -42.83,-37.621 -5.52,-12.781 -7.94,-25.199 -7.94,-36.98 0,-17.758 5.46,-33.957 13.45,-48.109 24.08,-42.379 70.56,-67.579 70.92,-67.86 2.68,-1.469 6.03,-0.488 7.49,2.18 1.47,2.672 0.49,6.019 -2.18,7.492"
         style="fill:#1d2a30;fill-opacity:1;fill-rule:nonzero;stroke:none"
         id="path126" /><path
         d="m 3547.26,168.82 c -2.97,-29.672 -13.45,-58.129 -43.45,-75.7809 -19.97,-11.8086 -48.43,-18.8594 -89.13,-18.418 -101.71,1.3203 -292.88,74.0079 -292.88,74.0079 l -179.03,98.953 93.1,147.379 25.48,40.367 65.85,-14.777 c 0,0 54.5,-30.891 109.32,-55.481 54.83,-24.609 187.86,-29.781 234.75,-67.73 46.87,-37.852 81.07,-79.102 75.99,-128.52"
         style="fill:#73cd91;fill-opacity:1;fill-rule:nonzero;stroke:none"
         id="path128" /><path
         d="m 3547.26,168.82 c -2.97,-29.672 -13.45,-58.129 -43.45,-75.7809 5.62,23.0629 10.25,54.9299 -5.08,89.3519 -19.86,44.898 -85.05,84.5 -170.65,91.121 -85.49,6.617 -151.13,46.66 -185.44,64.527 -26.79,13.902 -83.28,44.242 -106.77,56.922 l 25.48,40.367 65.85,-14.777 c 0,0 54.5,-30.891 109.32,-55.481 54.83,-24.609 187.86,-29.781 234.75,-67.73 46.87,-37.852 81.07,-79.102 75.99,-128.52"
         style="fill:#ffffff;fill-opacity:1;fill-rule:nonzero;stroke:none"
         id="path130" /><path
         d="m 2979.7,215.059 c 128.03,-73.348 274.43,-126.1684 421.12,-143.8285 9.82,-1.1914 20.19,-2.0821 30.57,-2.0821 12.26,0 24.56,1.2422 36,4.8321 11.44,3.5781 22.06,9.6015 30.48,19.0586 11.73,13.1909 16.74,30.7229 16.74,47.8009 0,2.512 -0.11,5.012 -0.32,7.492 -2.1,24.418 -13.4,46.129 -29.47,63.938 -16.09,17.82 -36.96,31.878 -58.82,41.281 -43.47,18.629 -90.63,22.949 -135.17,32.969 -44.34,9.941 -87.4,25.691 -127.7,46.71 -32.04,16.668 -63.74,37.571 -100.79,45.461 -8.18,1.731 -16.68,2.618 -25.21,2.618 -15.24,0 -30.56,-2.84 -44.21,-8.977 -13.63,-6.141 -25.62,-15.66 -33.71,-28.902 -1.59,-2.598 -0.77,-6 1.83,-7.59 2.59,-1.59 5.99,-0.77 7.58,1.832 6.79,11.09 16.85,19.187 28.83,24.598 11.97,5.402 25.82,8.019 39.68,8.011 7.75,0 15.51,-0.812 22.93,-2.383 34.35,-7.226 65.3,-27.347 97.97,-44.449 41.15,-21.461 85.11,-37.539 130.39,-47.699 45.48,-10.148 91.93,-14.551 133.23,-32.34 20.53,-8.808 40.16,-22.09 54.98,-38.531 14.83,-16.457 24.82,-35.949 26.67,-57.488 0.19,-2.172 0.28,-4.36 0.28,-6.551 0.01,-14.969 -4.46,-29.848 -13.94,-40.461 -6.91,-7.7384 -15.58,-12.7384 -25.55,-15.879 -9.96,-3.1289 -21.19,-4.3203 -32.7,-4.3203 -9.75,0 -19.7,0.8398 -29.25,2 -144.96,17.4414 -290.09,69.7613 -416.96,142.4493 -2.64,1.519 -6.01,0.601 -7.53,-2.039 -1.51,-2.649 -0.6,-6.02 2.05,-7.531"
         style="fill:#1d2a30;fill-opacity:1;fill-rule:nonzero;stroke:none"
         id="path132" /><path
         d="m 3484.33,79.3203 c 34.23,17.6016 62.54,49.8277 68.43,88.6917 0.74,4.957 1.1,9.918 1.1,14.859 -0.08,40.75 -24.06,79.199 -56.15,103.848 -35.9,27.492 -80.17,40.109 -123.32,49.101 -43.15,8.95 -86.69,14.942 -126.67,30.59 -26.31,10.262 -52.87,25.031 -79.93,37.371 -27.05,12.309 -54.71,22.278 -83.45,22.301 -9.82,0 -19.75,-1.184 -29.74,-3.832 -2.95,-0.781 -4.7,-3.801 -3.92,-6.75 0.78,-2.941 3.8,-4.699 6.75,-3.91 9.02,2.39 17.97,3.449 26.91,3.461 26.11,0.019 52.36,-9.211 78.88,-21.313 26.52,-12.066 53.22,-26.949 80.48,-37.609 41.64,-16.238 85.81,-22.231 128.45,-31.109 42.63,-8.84 85.22,-21.239 118.85,-47.051 29.91,-22.887 51.9,-58.848 51.83,-95.098 0,-4.402 -0.32,-8.82 -0.98,-13.223 -5.09,-34.398 -30.88,-64.277 -62.55,-80.5074 -2.71,-1.3906 -3.78,-4.7187 -2.39,-7.4297 1.39,-2.7109 4.71,-3.7812 7.42,-2.3906"
         style="fill:#1d2a30;fill-opacity:1;fill-rule:nonzero;stroke:none"
         id="path134" /><path
         d="m 3127.64,1059.03 c -10.48,-5.4 30.12,107.11 10.81,132.59 -19.3,25.6 -77.1,23.06 -77.1,23.06 l 4.97,30.77 c 0.66,3.43 34.3,175.95 34.3,175.95 l 11.36,13.56 c 0,0 117.81,-201.97 138.89,-273.12 0,0 -128.41,-102.81 -123.23,-102.81 m -761.58,148.7 c -22.28,-15.77 -10.37,-77 -10.37,-77 l -37.95,33.42 95.21,234.08 40.59,-179.69 c 0,0 -65.19,4.85 -87.48,-10.81 m 818.4,561.26 -302.92,115.27 -3.75,1.44 c 0,0 1.1,8.05 1.99,19.74 1.88,24.16 2.86,63.54 -8.49,76.89 -16.88,19.74 -64.76,3.2 -111.42,24.6 -46.66,21.4 -133.04,-16.88 -133.04,-16.88 0,0 -62.32,11.48 -89.78,-33.53 -14.01,-36.29 -9.16,-90.35 -9.16,-90.35 0,0 -1.98,-0.77 -5.73,-2.1 -36.08,-13.45 -232.44,-87.36 -274.02,-117.04 -45.89,-32.54 -96.63,-366.23 -112.96,-464.18 -16.33,-98.06 -45.33,-186.32 -30.55,-220.07 14.67,-33.65 225.69,-196.139 347.04,-238.05 121.34,-42.031 551.87,-29.679 551.87,-29.679 0,0 7.06,1.89 19.53,5.847 72.81,23.391 331.16,119.692 468.16,346.822 0,0 -132.71,435.28 -306.77,621.27"
         style="fill:#73cd91;fill-opacity:1;fill-rule:nonzero;stroke:none"
         id="path136" /><path
         d="M 2612.53,2499.08 2456.2,2333.1 c 0,0 -21.56,-19.06 -13,-67.21 8.57,-48.15 28.53,-89.52 43.59,-92.72 15.08,-3.22 36.21,-3.25 36.21,-3.25 0,0 33.5,-72.6 57.23,-101.14 0,0 8.27,-112.06 3.86,-143.17 0,0 56.17,-49.07 109.07,-55.31 52.91,-6.24 134.65,74.83 134.65,74.83 l 20.26,99.23 c 0,0 47.96,72.8 51.23,92.18 3.28,19.38 25.2,14.41 35.97,23.97 10.77,9.55 35.71,52.32 39.83,92.72 4.12,40.4 4.41,86.81 -42.52,73.18 -40.67,10.93 -15.21,96.9 -15.21,96.9 l -71.46,63.05 -233.38,12.72"
         style="fill:#ffffff;fill-opacity:1;fill-rule:nonzero;stroke:none"
         id="path138" /><path
         d="m 2879.71,1904.48 c 0.02,0.31 0.05,0.64 0.07,0.96 v 0 0 c 1.88,24.16 2.86,63.54 -8.49,76.89 11.54,-13.51 10.33,-53.77 8.42,-77.85"
         style="fill:#8e989b;fill-opacity:1;fill-rule:nonzero;stroke:none"
         id="path140" /><path
         d="m 2735.27,1724.87 -33.97,104.46 -18.65,-104.46 c -37.51,16.32 -151.89,115.49 -151.89,115.49 0,0 -3.87,9.26 -8.6,23.71 3.75,1.33 5.73,2.1 5.73,2.1 v 0 0 c 0,0 -0.81,9.05 -0.81,22.23 0,19.03 1.69,46.68 9.97,68.12 v 0 c 0.23,0.38 0.46,0.75 0.7,1.12 0.03,0.05 0.06,0.1 0.09,0.14 0.15,0.25 0.31,0.48 0.47,0.72 11.96,18.19 29.81,26.61 46.35,30.28 0.94,-25.76 1.18,-50.83 -0.57,-63.17 0,0 56.17,-49.07 109.07,-55.31 1.96,-0.23 3.96,-0.34 6,-0.34 52.86,0 128.65,75.17 128.65,75.17 l 9.86,48.26 c 14.86,-1.02 26.78,-3.07 33.62,-11.06 v 0 c 11.35,-13.35 10.37,-52.73 8.49,-76.89 v 0 l -6.29,-39.27 v 0 0 l -26,-35.35 c -42.21,-48.25 -112.22,-105.95 -112.22,-105.95"
         style="fill:#bde7c5;fill-opacity:1;fill-rule:nonzero;stroke:none"
         id="path142" /><path
         d="m 2699.16,1869.96 c -2.04,0 -4.04,0.11 -6,0.34 -52.9,6.24 -109.07,55.31 -109.07,55.31 1.75,12.34 1.51,37.41 0.57,63.17 8.96,1.99 17.54,2.58 24.6,2.58 10.47,0 17.57,-1.31 17.57,-1.31 0,0 52.76,23.38 98.08,23.38 12.67,0 24.77,-1.83 34.96,-6.5 27.76,-12.73 55.96,-12.03 77.8,-13.54 l -9.86,-48.26 c 0,0 -75.79,-75.17 -128.65,-75.17"
         style="fill:#ffffff;fill-opacity:1;fill-rule:nonzero;stroke:none"
         id="path144" /><path
         d="m 3023.07,800.898 -69.05,71.711 22.83,271.141 55.84,477.47 c 5.87,50.16 -19.7,98.63 -64.22,122.45 -64.02,34.28 -139.76,61.62 -139.76,61.62 l 18.78,25.53 c 11.27,12.89 20.56,25.1 26,35.35 v 0 c 2.98,5.63 5.63,11.69 8.05,18.09 v 0 l 302.92,-115.27 c 174.06,-185.99 306.77,-621.27 306.77,-621.27 -137,-227.13 -395.35,-323.431 -468.16,-346.822 v 0 m 102.81,260.792 c 0,-1.84 0.34,-2.85 1.11,-2.85 0.19,0 0.41,0.06 0.65,0.19 v 0 0 c -0.1,0 -0.15,0.03 -0.15,0.11 -0.06,3.86 123.38,102.7 123.38,102.7 v 0 0 c -21.08,71.15 -138.89,273.12 -138.89,273.12 l -11.36,-13.56 c 0,0 -4.45,-22.83 -10.15,-52.05 -0.7,-3.59 -1.42,-7.29 -2.15,-11.04 -9.68,-49.65 -21.61,-110.83 -22,-112.86 l -4.97,-30.77 v 0 c 0,0 1.59,0.07 4.32,0.07 13.77,0 56.67,-1.77 72.78,-23.13 3.82,-5.03 5.29,-13.45 5.29,-23.69 -0.02,-35.51 -17.85,-92.87 -17.86,-106.24"
         style="fill:#4ebe7b;fill-opacity:1;fill-rule:nonzero;stroke:none"
         id="path146" /><path
         d="m 2877.79,1885.7 c 0.01,0.08 1.04,7.72 1.92,18.78 -0.87,-11.11 -1.91,-18.71 -1.92,-18.78"
         style="fill:#4ebe7b;fill-opacity:1;fill-rule:nonzero;stroke:none"
         id="path148" /><path
         d="m 2847.49,1830.82 26,35.35 c -5.44,-10.25 -14.73,-22.46 -26,-35.35"
         style="fill:#91c9a2;fill-opacity:1;fill-rule:nonzero;stroke:none"
         id="path150" /><path
         d="m 2873.49,1866.17 6.29,39.27 c -0.02,-0.32 -0.05,-0.65 -0.07,-0.96 -0.88,-11.06 -1.91,-18.7 -1.92,-18.78 v 0 0 0 0 0 l 3.75,-1.44 c -2.42,-6.4 -5.07,-12.46 -8.05,-18.09"
         style="fill:#91c9a2;fill-opacity:1;fill-rule:nonzero;stroke:none"
         id="path152" /><path
         d="m 2396.07,993.391 c 0,0 -135.91,108.439 -191.94,108.439 -55.93,0 -46,17.98 0,89.79 45.99,71.93 95.68,313.93 95.68,313.93 l -15.22,202.57 c 43.16,-52.95 101.06,-226.42 127.76,-311.36 l -11.15,-27.41 -4.49,-11.04 -78.97,-194.16 37.95,-33.42 v 0 c 0,0 -3.18,16.34 -3.18,34.31 0,16.82 2.78,35.06 13.55,42.69 13.76,9.67 43.87,11.52 64.9,11.52 13.03,0 22.58,-0.71 22.58,-0.71 v 0 0 l -37.83,167.45 c 7.09,-22.8 11.24,-36.95 11.24,-36.95 l 47.11,-157.42 -88.48,-107.77 10.49,-90.459"
         style="fill:#4ebe7b;fill-opacity:1;fill-rule:nonzero;stroke:none"
         id="path154" /><path
         d="m 2415.71,1385.99 c -1.06,3.41 -2.18,6.99 -3.36,10.77 l 0.6,1.47 2.76,-12.24"
         style="fill:#cecdcc;fill-opacity:1;fill-rule:nonzero;stroke:none"
         id="path156" /><path
         d="m 2574.75,2068.22 c 0,-0.01 0.23,-2.31 0.59,-6.39 1.08,-12.23 3.24,-40.21 3.24,-67.41 0.01,-18.1 -0.99,-35.94 -3.73,-48.08 -0.67,-2.98 1.2,-5.93 4.18,-6.59 2.97,-0.67 5.92,1.2 6.58,4.17 3.06,13.71 3.99,31.97 4,50.5 0,37.01 -3.88,74.82 -3.89,74.92 -0.31,3.03 -3.02,5.24 -6.05,4.93 -3.03,-0.31 -5.24,-3.02 -4.92,-6.05"
         style="fill:#1d2a30;fill-opacity:1;fill-rule:nonzero;stroke:none"
         id="path158" /><path
         d="m 2841.98,1956.56 -0.01,0.93 c -0.01,6.28 0.44,43.45 9.29,78.76 0.74,2.96 -1.06,5.95 -4.02,6.69 -2.95,0.74 -5.95,-1.06 -6.68,-4.01 -9.23,-36.93 -9.61,-74.67 -9.62,-81.44 l 0.01,-1.06 c 0.03,-3.05 2.53,-5.49 5.58,-5.45 3.05,0.04 5.48,2.54 5.45,5.58"
         style="fill:#1d2a30;fill-opacity:1;fill-rule:nonzero;stroke:none"
         id="path160" /><path
         d="m 2854.88,2432.36 0.51,-0.64 c 2.57,-3.31 14.49,-19.04 25.67,-39.35 11.22,-20.27 21.51,-45.24 21.44,-66.12 0,-1.14 -0.03,-2.27 -0.09,-3.39 -2.26,-42.01 -5.53,-91.05 -5.53,-140.31 0,-7.8 0.08,-15.61 0.26,-23.4 l 0.01,-1.08 c 0.05,-12.83 -5.33,-30.32 -14.43,-49.03 -13.62,-28.1 -35.39,-59.1 -57.97,-83.8 -11.28,-12.35 -22.77,-23.13 -33.45,-31.21 -10.65,-8.09 -20.57,-13.39 -28.1,-15.03 -19.05,-4.24 -36.85,-7.12 -53.01,-7.11 -23.71,0.06 -43.53,5.95 -60.4,22.74 -29.79,29.77 -60.02,71.76 -99.53,125.77 -12.64,17.21 -20.39,42.43 -24.72,68.12 -4.37,25.7 -5.44,51.83 -5.43,71.02 0,8.95 0.23,16.4 0.46,21.59 0.23,5.2 0.46,8.07 0.45,8.08 0.24,3.04 -2.03,5.69 -5.07,5.93 -3.03,0.24 -5.69,-2.03 -5.92,-5.07 -0.01,-0.11 -0.95,-12.24 -0.95,-30.53 0,-19.6 1.07,-46.26 5.58,-72.86 4.55,-26.61 12.41,-53.2 26.7,-72.8 39.49,-53.96 69.84,-96.24 100.63,-127.05 19.11,-19.19 42.71,-26.04 68.2,-25.98 17.46,0.01 35.97,3.07 55.4,7.38 13.46,3.07 28.32,12.84 43.9,26.45 23.28,20.45 47.7,49.85 66.51,79.76 9.39,14.96 17.38,30.04 23.06,44.26 5.67,14.23 9.1,27.57 9.12,39.37 l -0.01,1.34 c -0.18,7.69 -0.26,15.41 -0.26,23.14 0,48.78 3.24,97.6 5.51,139.71 0.08,1.33 0.11,2.65 0.11,3.99 -0.08,25.94 -12.75,53.81 -25.13,75.59 -12.43,21.74 -24.78,37.25 -24.89,37.39 -1.9,2.39 -5.37,2.78 -7.75,0.88 -2.38,-1.89 -2.78,-5.36 -0.88,-7.75"
         style="fill:#1d2a30;fill-opacity:1;fill-rule:nonzero;stroke:none"
         id="path162" /><path
         d="m 2730.16,2245.45 c -2.78,-15.68 -4.18,-31.61 -4.18,-47.53 0,-2.42 0.03,-4.84 0.1,-7.25 0.46,-15.39 2.51,-33.13 14.75,-45.76 3.26,-3.3 6.75,-5.91 9.27,-8.43 2.57,-2.56 3.91,-4.67 4.2,-6.89 v 0 l 0.06,-0.91 c 0,-1.76 -0.7,-3.72 -2.18,-5.76 -1.46,-2.01 -3.64,-3.96 -5.94,-5.43 h -0.01 c -5.25,-3.46 -12.59,-5.88 -19.15,-11.48 -2.3,-2 -2.54,-5.49 -0.54,-7.78 2,-2.3 5.48,-2.54 7.78,-0.54 4.28,3.83 11,6.21 17.86,10.51 v 0 c 3.29,2.11 6.44,4.84 8.92,8.23 2.45,3.37 4.28,7.54 4.29,12.25 l -0.16,2.38 v 0 c -0.8,5.81 -4.12,10.03 -7.36,13.24 -3.29,3.25 -6.75,5.85 -9.17,8.33 -8.84,8.86 -11.26,23.64 -11.6,38.33 -0.06,2.32 -0.09,4.64 -0.09,6.96 0,15.28 1.34,30.56 4.01,45.6 0.54,3 -1.46,5.86 -4.46,6.39 -3,0.54 -5.86,-1.46 -6.4,-4.46"
         style="fill:#1d2a30;fill-opacity:1;fill-rule:nonzero;stroke:none"
         id="path164" /><path
         d="m 2648.59,2094.74 c 0.1,-0.56 1.76,-10.99 10.42,-22.59 8.61,-11.61 24.48,-24.14 51.45,-28.29 3.01,-0.47 5.83,1.59 6.3,4.6 0.47,3.01 -1.59,5.83 -4.6,6.3 -24.36,3.85 -37.13,14.47 -44.32,23.99 -3.57,4.78 -5.68,9.33 -6.89,12.63 -0.6,1.65 -0.98,2.98 -1.2,3.87 l -0.22,0.98 -0.04,0.2 -0.07,-0.01 0.07,0.01 v 0 l -0.07,-0.01 0.07,0.01 c -0.47,3.01 -3.29,5.08 -6.3,4.61 -3.01,-0.47 -5.07,-3.29 -4.6,-6.3"
         style="fill:#1d2a30;fill-opacity:1;fill-rule:nonzero;stroke:none"
         id="path166" /><path
         d="m 2659.38,2215.3 c 0,-11.06 -4.78,-20.02 -10.68,-20.02 -5.9,0 -10.68,8.96 -10.68,20.02 0,11.06 4.78,20.03 10.68,20.03 5.9,0 10.68,-8.97 10.68,-20.03"
         style="fill:#1d2a30;fill-opacity:1;fill-rule:nonzero;stroke:none"
         id="path168" /><path
         d="m 2812.48,2210.49 c 0,-11.06 -4.79,-20.03 -10.69,-20.03 -5.89,0 -10.68,8.97 -10.68,20.03 0,11.06 4.79,20.02 10.68,20.02 5.9,0 10.69,-8.96 10.69,-20.02"
         style="fill:#1d2a30;fill-opacity:1;fill-rule:nonzero;stroke:none"
         id="path170" /><path
         d="m 2789.39,2251.18 -1.91,1.91 1.89,-1.93 0.02,0.02 -1.91,1.91 1.89,-1.93 c 0.19,0.19 4.95,4.78 12.16,9.09 7.23,4.36 16.77,8.25 26.4,8.21 5.59,-0.02 11.27,-1.18 17.36,-4.39 6.08,-3.23 12.65,-8.61 19.41,-17.51 3.68,-4.85 10.6,-5.8 15.45,-2.12 4.85,3.68 5.8,10.6 2.12,15.46 -8.32,10.98 -17.32,18.73 -26.65,23.66 -9.31,4.95 -18.86,6.98 -27.69,6.96 -15.89,-0.05 -29.21,-6.14 -38.62,-11.88 -9.43,-5.8 -15.1,-11.46 -15.52,-11.86 -4.31,-4.31 -4.31,-11.3 0,-15.6 4.31,-4.31 11.29,-4.31 15.6,0"
         style="fill:#1d2a30;fill-opacity:1;fill-rule:nonzero;stroke:none"
         id="path172" /><path
         d="m 2684.52,2265.36 c -0.53,0.58 -4.76,5.25 -12.57,9.97 -7.77,4.71 -19.31,9.46 -33.81,9.46 -14.49,0.03 -31.52,-4.86 -49.61,-17.78 -4.97,-3.53 -6.13,-10.42 -2.6,-15.38 3.53,-4.97 10.42,-6.13 15.38,-2.6 15.1,10.69 27.21,13.67 36.83,13.7 9.61,0 17.15,-3.12 22.42,-6.29 2.61,-1.57 4.62,-3.15 5.91,-4.28 l 1.37,-1.27 0.26,-0.26 0.01,-0.02 4.83,4.42 -4.89,-4.35 0.06,-0.07 4.83,4.42 -4.89,-4.35 c 4.06,-4.55 11.03,-4.95 15.58,-0.89 4.55,4.05 4.94,11.02 0.89,15.57"
         style="fill:#1d2a30;fill-opacity:1;fill-rule:nonzero;stroke:none"
         id="path174" /><path
         d="m 2584.09,2022.14 c 0,0 30.49,-84.04 98.58,-107.87 68.1,-23.84 158.51,99.86 158.51,99.86 l -4.73,16.09 c 0,0 -59.24,-76.98 -125.14,-63.85 -65.91,13.12 -131.08,102.41 -131.08,102.41 l 3.86,-46.64"
         style="fill:#1d2a30;fill-opacity:1;fill-rule:nonzero;stroke:none"
         id="path176" /><path
         d="m 2521.16,2178.37 -0.29,-0.1 c -1.57,-0.53 -9.35,-2.85 -17.83,-2.83 -5.36,-0.01 -10.9,0.92 -15.43,3.38 -4.53,2.5 -8.3,6.32 -10.77,13.42 -3.92,11.45 -10.96,28.97 -17.04,48.12 -6.08,19.12 -11.11,39.85 -11.08,56.87 -0.01,7.03 0.84,13.38 2.65,18.71 1.83,5.35 4.54,9.64 8.42,12.97 5.02,4.26 9.15,5.59 12.92,5.62 4.36,0.01 8.85,-1.99 13.32,-5.59 6.69,-5.36 12.75,-14.09 16.92,-21.43 2.1,-3.67 3.75,-6.99 4.87,-9.37 0.55,-1.19 0.98,-2.15 1.26,-2.8 l 0.4,-0.95 c 1.15,-2.82 4.36,-4.19 7.18,-3.05 2.83,1.14 4.19,4.36 3.05,7.18 -0.09,0.21 -4.58,11.37 -12.4,22.84 -3.92,5.73 -8.67,11.57 -14.35,16.16 -5.66,4.57 -12.47,8.02 -20.25,8.04 -6.69,0.02 -13.64,-2.7 -20.1,-8.27 -5.58,-4.78 -9.37,-10.97 -11.68,-17.8 -2.32,-6.85 -3.24,-14.37 -3.25,-22.26 0.03,-19.1 5.39,-40.56 11.6,-60.2 6.23,-19.6 13.39,-37.41 17.12,-48.35 3.19,-9.49 9.18,-15.94 15.96,-19.56 6.79,-3.65 14.13,-4.7 20.68,-4.71 11.87,0.02 21.46,3.46 21.79,3.56 2.87,1.01 4.38,4.16 3.37,7.03 -1.02,2.88 -4.17,4.38 -7.04,3.37"
         style="fill:#1d2a30;fill-opacity:1;fill-rule:nonzero;stroke:none"
         id="path178" /><path
         d="m 2901.49,2150.51 c 0.25,-0.05 4.54,-0.9 10.78,-0.9 6.49,0.01 15.16,0.9 23.56,4.95 8.39,4.01 16.42,11.55 20.49,23.62 3.73,10.94 10.89,28.75 17.11,48.35 6.21,19.64 11.57,41.1 11.6,60.2 -0.01,7.89 -0.93,15.41 -3.25,22.26 -2.31,6.84 -6.1,13.02 -11.68,17.8 -6.46,5.57 -13.41,8.29 -20.1,8.27 -7.78,-0.01 -14.59,-3.47 -20.24,-8.03 -8.51,-6.91 -14.99,-16.57 -19.58,-24.55 -4.55,-7.98 -7.11,-14.3 -7.17,-14.45 -1.14,-2.83 0.22,-6.04 3.05,-7.18 2.82,-1.15 6.04,0.22 7.18,3.04 l 0.17,0.41 c 0.91,2.18 5.54,12.67 12.46,22.27 3.44,4.8 7.46,9.35 11.65,12.52 4.21,3.2 8.39,4.94 12.48,4.94 3.77,-0.03 7.9,-1.36 12.92,-5.62 3.88,-3.33 6.59,-7.62 8.42,-12.97 1.81,-5.33 2.66,-11.68 2.65,-18.71 0.03,-17.02 -5,-37.75 -11.08,-56.87 -6.07,-19.15 -13.12,-36.67 -17.03,-48.12 -3.23,-9.3 -8.65,-14.18 -14.86,-17.25 -6.2,-3.02 -13.31,-3.86 -18.75,-3.85 -2.61,0 -4.82,0.18 -6.36,0.36 l -1.74,0.24 -0.42,0.07 -0.09,0.02 c -2.98,0.6 -5.89,-1.34 -6.49,-4.32 -0.6,-2.99 1.33,-5.9 4.32,-6.5"
         style="fill:#1d2a30;fill-opacity:1;fill-rule:nonzero;stroke:none"
         id="path180" /><path
         d="m 2514.6,2215.3 c 11.24,0.51 29.68,11.47 35.61,21.04 5.92,9.58 8.43,20.84 10.35,31.92 3.68,21.24 5.57,42.79 5.65,64.35 0.03,8.42 -0.2,17.01 2.25,25.07 2.57,8.39 7.88,15.65 13.58,22.32 14.17,16.6 31.22,30.63 44.7,47.8 13.46,17.17 23.35,38.92 19.72,60.43 0,0 92.05,-84.14 224.74,-58.12 71.43,14.01 140,76.7 131.65,155.49 -2.97,28.04 -23.58,48.2 -50.33,54.86 -35.32,8.78 -67.04,-10.05 -99.04,-22.11 -58.33,-22 -115.4,15.77 -174.32,22.11 -50.4,5.42 -112.26,-0.83 -138.5,-50.94 0,0 -90.53,-10.63 -130.17,-84.98 -39.66,-74.35 35.72,-177.28 35.72,-177.28 0,0 30.33,36.73 69.32,-37.62 l -0.93,-74.34"
         style="fill:#1d2a30;fill-opacity:1;fill-rule:nonzero;stroke:none"
         id="path182" /><path
         d="m 2864.9,2454.81 c 0,0 -23.41,-121.98 37.68,-181.05 0,0 13.36,36.67 26.92,45.62 0,0 33.99,64.45 -10.7,135.43 -44.69,70.99 -53.9,0 -53.9,0"
         style="fill:#1d2a30;fill-opacity:1;fill-rule:nonzero;stroke:none"
         id="path184" /><path
         d="m 2504.31,2399.01 c -0.13,0 -0.25,0.01 -0.38,0.02 -3.04,0.2 -5.33,2.83 -5.13,5.87 2.46,35.8 21.91,68.96 49.16,93.26 27.27,24.28 62.52,39.89 97.54,39.92 3.34,0 6.68,-0.15 10.01,-0.44 60.07,-5.38 117.88,-25.47 175,-25.47 0.1,0 0.2,0 0.3,0 24.75,0.01 49.35,3.7 74.21,13.81 31,12.61 58.06,37.64 66.45,69.09 0.66,2.46 2.89,4.08 5.32,4.08 0.47,0 0.96,-0.06 1.44,-0.19 2.94,-0.79 4.68,-3.81 3.89,-6.76 -9.68,-35.78 -39.47,-62.77 -72.94,-76.43 -26.35,-10.74 -52.5,-14.63 -78.32,-14.63 -0.02,0 -0.03,0 -0.05,0 -59.76,0.08 -117.91,20.42 -176.27,25.51 -3,0.27 -6.01,0.4 -9.04,0.4 -0.03,0 -0.07,0 -0.1,0 -31.65,0 -64.64,-14.41 -90.1,-37.13 -25.53,-22.73 -43.33,-53.58 -45.49,-85.77 -0.2,-2.91 -2.62,-5.14 -5.5,-5.14"
         style="fill:#45555c;fill-opacity:1;fill-rule:nonzero;stroke:none"
         id="path186" /><path
         d="m 2451.64,2417.8 c -0.04,0 -0.08,0 -0.13,0 -3.04,0.07 -5.46,2.59 -5.39,5.64 1.41,58.42 39.64,113.79 93.77,135.8 0.68,0.27 1.38,0.41 2.07,0.41 2.18,0 4.24,-1.31 5.11,-3.45 1.15,-2.82 -0.22,-6.04 -3.04,-7.18 -49.85,-20.12 -85.73,-72.09 -86.88,-125.83 -0.07,-3.01 -2.52,-5.39 -5.51,-5.39"
         style="fill:#45555c;fill-opacity:1;fill-rule:nonzero;stroke:none"
         id="path188" /><path
         d="m 2556.59,1952.79 c 0.32,-0.28 56.46,-62.36 134.19,-91.8 1.13,-0.42 2.33,-0.47 3.49,-0.13 0.22,0.07 25.89,7.51 58.17,23.94 32.28,16.46 71.26,41.84 97.92,78.32 1.8,2.46 1.26,5.91 -1.2,7.7 -2.46,1.8 -5.91,1.26 -7.71,-1.2 -25.01,-34.3 -62.61,-59.03 -94.01,-74.99 -15.69,-7.98 -29.81,-13.8 -39.97,-17.61 -5.09,-1.9 -9.18,-3.3 -11.99,-4.22 -1.41,-0.46 -2.49,-0.8 -3.22,-1.03 l -1.06,-0.32 1.53,-5.3 1.95,5.16 c -37.3,14.08 -69.9,36.35 -93.08,55.1 -11.6,9.37 -20.84,17.86 -27.17,23.98 -3.17,3.06 -5.6,5.54 -7.24,7.23 l -1.84,1.94 -0.59,0.64 c -2.05,2.26 -5.54,2.43 -7.8,0.38 -2.25,-2.05 -2.42,-5.53 -0.37,-7.79"
         style="fill:#1d2a30;fill-opacity:1;fill-rule:nonzero;stroke:none"
         id="path190" /><path
         d="m 2716.68,2215.3 h -5.52 c 0,-23.3 -9.43,-44.35 -24.69,-59.62 -15.28,-15.27 -36.32,-24.69 -59.62,-24.69 -23.3,0 -44.35,9.42 -59.62,24.69 -15.27,15.27 -24.69,36.32 -24.7,59.62 0.01,23.3 9.43,44.34 24.7,59.62 15.27,15.27 36.32,24.69 59.62,24.69 23.3,0 44.34,-9.42 59.62,-24.69 15.26,-15.27 24.69,-36.32 24.69,-59.62 h 5.52 5.51 c 0,52.66 -42.68,95.34 -95.34,95.34 -52.66,0 -95.34,-42.68 -95.35,-95.34 0.01,-52.66 42.69,-95.34 95.35,-95.34 52.66,0 95.34,42.68 95.34,95.34 h -5.51"
         style="fill:#1d2a30;fill-opacity:1;fill-rule:nonzero;stroke:none"
         id="path192" /><path
         d="m 2917.37,2215.3 h -5.52 c 0,-23.3 -9.43,-44.34 -24.69,-59.62 -15.28,-15.27 -36.32,-24.69 -59.62,-24.69 -23.3,0 -44.34,9.42 -59.62,24.69 -15.26,15.27 -24.69,36.32 -24.69,59.62 0,23.3 9.43,44.35 24.69,59.62 15.28,15.27 36.32,24.69 59.62,24.69 23.3,0 44.34,-9.42 59.62,-24.69 15.26,-15.28 24.69,-36.32 24.69,-59.62 h 5.52 5.52 c -0.01,52.66 -42.7,95.34 -95.35,95.34 -52.66,0 -95.34,-42.68 -95.34,-95.34 0,-52.66 42.68,-95.34 95.34,-95.34 52.65,0 95.34,42.68 95.35,95.34 h -5.52"
         style="fill:#1d2a30;fill-opacity:1;fill-rule:nonzero;stroke:none"
         id="path194" /><path
         d="m 2579.14,1995.41 c -0.39,-0.08 -7.73,-1.6 -17.22,-6.84 -9.48,-5.24 -21.15,-14.3 -29.7,-29.35 -4.21,-7.5 -6.49,-17.42 -7.96,-28.58 -1.44,-11.14 -1.93,-23.49 -1.93,-35.44 0,-28.81 2.89,-55.28 2.9,-55.39 0.14,-1.27 0.69,-2.43 1.6,-3.33 0.07,-0.07 20.68,-20.46 50.1,-45.19 29.45,-24.74 67.62,-53.81 103.32,-71.33 1.55,-0.76 3.37,-0.75 4.92,0.04 1.54,0.78 2.63,2.24 2.93,3.95 l 16.35,91.95 25.52,-92.45 c 0.48,-1.73 1.78,-3.13 3.47,-3.73 1.68,-0.6 3.57,-0.34 5.04,0.69 0.1,0.08 27.28,19.3 58.32,46.73 31.04,27.5 65.96,62.91 81.69,96.7 l 0.46,1.61 c 0.01,0.12 4.39,33.73 4.39,63.93 -0.05,15.17 -0.96,29.27 -4.73,39.01 -4.93,12.64 -13.31,19.75 -20.8,23.28 -7.5,3.57 -14.01,3.85 -16.17,3.86 l -0.74,-0.02 c -3.05,-0.16 -5.39,-2.75 -5.23,-5.79 0.16,-3.04 2.75,-5.38 5.79,-5.23 l -0.04,0.76 0.02,-0.76 h 0.02 l -0.04,0.76 0.02,-0.76 h 0.2 c 1.1,0.01 6.04,-0.19 11.41,-2.77 5.38,-2.62 11.3,-7.33 15.3,-17.37 2.76,-6.78 4.01,-20.45 3.96,-34.97 0,-14.59 -1.07,-30.27 -2.15,-42.26 -0.54,-5.99 -1.07,-11.07 -1.48,-14.64 -0.4,-3.58 -0.67,-5.61 -0.67,-5.62 l 5.47,-0.71 -5,2.32 c -14.23,-30.91 -48.41,-66.12 -78.98,-93.06 -15.28,-13.51 -29.66,-25.03 -40.2,-33.16 -5.27,-4.06 -9.58,-7.28 -12.57,-9.48 -2.99,-2.19 -4.62,-3.35 -4.62,-3.35 l 3.18,-4.51 5.32,1.47 -32,115.94 c -0.69,2.49 -3,4.16 -5.58,4.04 -2.58,-0.12 -4.72,-2 -5.17,-4.54 l -20.62,-115.94 5.43,-0.97 2.43,4.96 c -34.2,16.75 -72.01,45.42 -101.07,69.86 -14.54,12.22 -26.92,23.39 -35.65,31.49 -4.37,4.05 -7.83,7.34 -10.18,9.6 -2.36,2.27 -3.61,3.5 -3.61,3.5 l -3.88,-3.92 5.48,0.6 c 0,0 -0.17,1.59 -0.44,4.47 -0.79,8.64 -2.39,28.66 -2.39,49.73 0,11.63 0.49,23.59 1.84,34.03 1.32,10.42 3.63,19.36 6.61,24.54 7.35,12.93 17.29,20.62 25.45,25.15 4.07,2.25 7.68,3.69 10.23,4.56 1.28,0.43 2.28,0.72 2.95,0.9 l 0.73,0.18 0.16,0.04 c 2.98,0.6 4.91,3.51 4.31,6.5 -0.61,2.98 -3.52,4.91 -6.5,4.31"
         style="fill:#1d2a30;fill-opacity:1;fill-rule:nonzero;stroke:none"
         id="path196" /><path
         d="m 2457.09,1215.46 c -0.01,0.07 -8.03,53.88 -21.41,118.74 -13.42,64.92 -32.03,140.65 -53.83,185.51 -1.33,2.74 -4.63,3.88 -7.37,2.55 -2.74,-1.34 -3.88,-4.64 -2.55,-7.38 20.91,-42.84 39.67,-118.42 52.95,-182.91 6.66,-32.26 11.98,-61.82 15.65,-83.29 1.83,-10.74 3.24,-19.46 4.2,-25.49 0.96,-6.03 1.45,-9.34 1.45,-9.35 0.45,-3.02 3.26,-5.09 6.27,-4.65 3.01,0.45 5.09,3.26 4.64,6.27"
         style="fill:#1d2a30;fill-opacity:1;fill-rule:nonzero;stroke:none"
         id="path198" /><path
         d="m 2280.1,1704.91 c 0,-0.01 2.49,-3.49 6.67,-9.63 12.53,-18.4 40.09,-60.43 59.23,-100.65 1.31,-2.75 4.6,-3.92 7.36,-2.61 2.75,1.31 3.91,4.6 2.6,7.36 -26.15,54.88 -66.8,111.8 -66.88,111.94 -1.77,2.48 -5.22,3.06 -7.7,1.29 -2.48,-1.77 -3.05,-5.22 -1.28,-7.7"
         style="fill:#1d2a30;fill-opacity:1;fill-rule:nonzero;stroke:none"
         id="path200" /><path
         d="m 3132.99,1546.23 c 11.23,42.64 23.22,80.04 34.9,103.91 1.34,2.73 0.21,6.04 -2.53,7.38 -2.74,1.33 -6.04,0.2 -7.38,-2.54 -12.3,-25.19 -24.31,-62.93 -35.66,-105.94 -0.78,-2.94 0.98,-5.96 3.93,-6.73 2.94,-0.78 5.96,0.98 6.74,3.92"
         style="fill:#1d2a30;fill-opacity:1;fill-rule:nonzero;stroke:none"
         id="path202" /><path
         d="m 3066.78,1213.79 c 0.01,0.03 1.45,9.19 4.04,24.88 7.79,47.08 25.97,152.68 46.59,243.57 0.67,2.97 -1.19,5.92 -4.16,6.6 -2.97,0.67 -5.93,-1.19 -6.6,-4.16 -27.61,-121.72 -50.75,-269.11 -50.76,-269.17 -0.48,-3.01 1.58,-5.84 4.59,-6.31 3.01,-0.47 5.83,1.59 6.3,4.59"
         style="fill:#1d2a30;fill-opacity:1;fill-rule:nonzero;stroke:none"
         id="path204" /><path
         d="m 3105,1418.14 c 21.29,28.43 52.27,49.62 86.49,59.14 2.93,0.81 4.65,3.85 3.83,6.79 -0.82,2.93 -3.86,4.65 -6.79,3.83 -36.62,-10.2 -69.56,-32.73 -92.36,-63.15 -1.83,-2.43 -1.33,-5.89 1.11,-7.72 2.43,-1.82 5.89,-1.33 7.72,1.11"
         style="fill:#1d2a30;fill-opacity:1;fill-rule:nonzero;stroke:none"
         id="path206" /><path
         d="m 2875.78,1880.58 c 0.04,-0.01 186.41,-74.46 306.9,-116.82 l 1.83,5.21 -3.78,-4.02 0.36,-0.34 c 8.06,-7.88 151.34,-152.25 304.85,-618.63 l 5.24,1.73 -4.74,2.82 c 0,-0.01 -0.53,-0.89 -1.64,-2.66 -16.62,-26.7 -160.16,-245.132 -417.13,-317.87 -2.93,-0.84 -4.63,-3.879 -3.8,-6.82 0.83,-2.93 3.88,-4.629 6.81,-3.801 279,79.269 424.88,325.051 425.24,325.511 0.82,1.37 1,3.03 0.5,4.54 -158.89,482.74 -307.32,622.79 -308.13,623.55 l -1.95,1.19 c -60.04,21.1 -136.68,50.28 -198.29,74.17 -30.8,11.94 -57.85,22.56 -77.19,30.2 -19.35,7.64 -30.95,12.27 -30.98,12.29 -2.83,1.13 -6.04,-0.25 -7.17,-3.08 -1.13,-2.83 0.24,-6.04 3.07,-7.17"
         style="fill:#1d2a30;fill-opacity:1;fill-rule:nonzero;stroke:none"
         id="path208" /><path
         d="m 3120.75,1046.04 133.62,111.57 -3.53,4.24 3.33,-4.39 0.37,0.26 c 4.02,3 40.76,28.52 85.96,28.44 16.51,-0.01 34.16,-3.33 52.08,-12.28 2.72,-1.37 6.04,-0.26 7.4,2.46 1.36,2.73 0.26,6.04 -2.47,7.4 -19.55,9.79 -39.02,13.45 -57.01,13.45 -52.62,-0.11 -92.53,-30.67 -93,-30.95 l -0.2,-0.16 -133.62,-111.57 c -2.34,-1.95 -2.65,-5.43 -0.7,-7.77 1.95,-2.34 5.43,-2.65 7.77,-0.7"
         style="fill:#1d2a30;fill-opacity:1;fill-rule:nonzero;stroke:none"
         id="path210" /><path
         d="m 3107.47,1431.84 c 0,-0.01 1.7,-2.51 4.76,-7.15 10.72,-16.26 37.97,-58.5 65.58,-108.63 27.61,-50.1 55.56,-108.21 67.68,-155.58 0.76,-2.95 3.77,-4.73 6.72,-3.98 2.95,0.76 4.73,3.77 3.97,6.72 -14.42,56.11 -49.29,124.55 -80.56,179.26 -31.28,54.68 -58.98,95.48 -59.03,95.55 -1.71,2.52 -5.14,3.18 -7.66,1.47 -2.52,-1.71 -3.18,-5.14 -1.46,-7.66"
         style="fill:#1d2a30;fill-opacity:1;fill-rule:nonzero;stroke:none"
         id="path212" /><path
         d="m 2360.7,1128.55 -39.1,37.29 c -0.8,0.76 -1.77,1.25 -2.86,1.44 -0.26,0.05 -6.35,1.09 -16.69,1.09 -22.42,0.01 -65.01,-4.95 -111.11,-35.86 -2.54,-1.69 -3.21,-5.12 -1.52,-7.65 1.7,-2.53 5.13,-3.21 7.66,-1.51 43.9,29.43 84.12,33.98 104.97,33.99 4.8,0 8.56,-0.24 11.09,-0.48 1.27,-0.12 2.23,-0.24 2.85,-0.32 l 0.68,-0.1 0.17,-0.03 0.95,5.44 -3.81,-3.99 39.11,-37.29 c 2.2,-2.1 5.69,-2.02 7.79,0.19 2.11,2.2 2.02,5.69 -0.18,7.79"
         style="fill:#1d2a30;fill-opacity:1;fill-rule:nonzero;stroke:none"
         id="path214" /><path
         d="m 2323.07,1160.24 c 0,0.01 0.75,2.46 2.16,6.97 4.96,15.77 18.03,56.4 35.07,102.02 17.02,45.6 38.07,96.25 58.73,131.75 1.53,2.63 0.64,6.01 -1.99,7.54 -2.63,1.53 -6.01,0.64 -7.54,-1.99 -24.29,-41.79 -48.43,-102.4 -66.63,-152.74 -18.17,-50.32 -30.34,-90.28 -30.36,-90.34 -0.88,-2.91 0.76,-5.99 3.67,-6.88 2.92,-0.89 6,0.76 6.89,3.67"
         style="fill:#1d2a30;fill-opacity:1;fill-rule:nonzero;stroke:none"
         id="path216" /><path
         d="m 2525.91,1871.32 c -0.03,-0.01 -67.09,-25.17 -137.5,-54.02 -35.2,-14.43 -71.24,-29.77 -100.22,-43.39 -14.49,-6.81 -27.22,-13.19 -37.26,-18.85 -10.07,-5.73 -17.32,-10.45 -21.59,-15.11 -2.65,-3.09 -4.46,-7.2 -6.8,-13.23 -8.42,-22.27 -19.97,-69.5 -32.89,-129.42 -19.34,-89.79 -41.49,-207.57 -59.05,-308.62 -8.77,-50.52 -16.4,-96.85 -21.96,-133.41 -5.55,-36.63 -9.03,-63.23 -9.53,-75.15 l -0.02,-1.2 c 0.04,-8.92 3.81,-18.07 9.96,-27.74 10.83,-16.88 29.43,-35.6 52.74,-55.328 69.88,-59.051 182.27,-126.493 249.9,-162.243 2.69,-1.418 6.03,-0.39 7.45,2.301 1.42,2.692 0.4,6.031 -2.3,7.449 -51.07,26.993 -128.38,72.532 -192.67,118.403 -32.15,22.929 -61.06,45.958 -81.71,66.628 -10.32,10.33 -18.58,20.07 -24.11,28.73 -5.58,8.67 -8.27,16.22 -8.23,21.8 l 0.01,0.75 c 0.3,7.58 2.14,23.44 5.16,44.95 10.6,75.43 35.75,221.74 61.1,352.25 12.68,65.26 25.41,126.6 36.39,173.13 5.49,23.26 10.54,42.83 14.9,57.26 2.18,7.21 4.18,13.14 5.94,17.53 1.7,4.35 3.4,7.29 3.93,7.79 2.3,2.66 9.18,7.49 18.8,12.87 33.89,19.13 102.48,48.16 162.3,72.22 29.94,12.04 57.73,22.88 78.03,30.7 20.3,7.82 33.07,12.61 33.11,12.62 2.85,1.07 4.29,4.25 3.22,7.1 -1.07,2.85 -4.25,4.3 -7.1,3.23"
         style="fill:#1d2a30;fill-opacity:1;fill-rule:nonzero;stroke:none"
         id="path218" /><path
         d="m 3498.48,1956.5 h -305.5 c -36.08,0 -65.33,29.24 -65.33,65.32 v 179.23 c 0,36.07 29.25,65.31 65.33,65.31 h 305.5 c 36.08,0 65.33,-29.24 65.33,-65.31 v -179.23 c 0,-36.08 -29.25,-65.32 -65.33,-65.32"
         style="fill:#ffffff;fill-opacity:1;fill-rule:nonzero;stroke:none"
         id="path220" /><path
         d="m 3498.48,1956.5 v 5.51 h -305.5 c -16.54,0 -31.45,6.69 -42.29,17.52 -10.83,10.84 -17.52,25.76 -17.52,42.29 v 179.23 c 0,16.53 6.69,31.44 17.52,42.28 10.84,10.83 25.75,17.51 42.29,17.51 h 305.5 c 16.54,0 31.45,-6.68 42.29,-17.51 10.83,-10.84 17.52,-25.75 17.52,-42.28 v -179.23 c 0,-16.53 -6.69,-31.45 -17.52,-42.29 -10.84,-10.83 -25.75,-17.52 -42.29,-17.52 v -5.51 -5.52 c 39.13,0 70.84,31.72 70.84,70.84 v 179.23 c 0,39.12 -31.71,70.82 -70.84,70.83 h -305.5 c -39.13,-0.01 -70.84,-31.71 -70.84,-70.83 v -179.23 c 0,-39.12 31.71,-70.84 70.84,-70.84 h 305.5 v 5.52"
         style="fill:#1d2a30;fill-opacity:1;fill-rule:nonzero;stroke:none"
         id="path222" /><path
         d="m 3265.44,2177.84 -83.86,-52.65 c -1.47,-0.92 -2.42,-2.49 -2.57,-4.22 -0.14,-1.72 0.54,-3.43 1.84,-4.58 l 77.82,-69.03 c 2.28,-2.02 5.77,-1.81 7.79,0.47 2.02,2.28 1.81,5.76 -0.47,7.78 l -72.31,64.15 77.63,48.73 c 2.58,1.62 3.36,5.03 1.74,7.61 -1.62,2.58 -5.03,3.36 -7.61,1.74"
         style="fill:#1d2a30;fill-opacity:1;fill-rule:nonzero;stroke:none"
         id="path224" /><path
         d="m 3424.78,2042.28 75.37,64.23 c 1.32,1.12 2.03,2.81 1.92,4.54 -0.1,1.73 -1.03,3.32 -2.48,4.27 l -87,57.04 c -2.55,1.67 -5.96,0.96 -7.63,-1.59 -1.68,-2.55 -0.96,-5.97 1.58,-7.64 l 80.85,-53 -69.77,-59.46 c -2.32,-1.97 -2.59,-5.45 -0.62,-7.77 1.98,-2.32 5.46,-2.6 7.78,-0.62"
         style="fill:#1d2a30;fill-opacity:1;fill-rule:nonzero;stroke:none"
         id="path226" /><path
         d="m 3314.4,2005.28 61.92,194.13 c 0.92,2.9 -0.68,6.01 -3.58,6.93 -2.9,0.93 -6.01,-0.68 -6.93,-3.58 l -61.92,-194.13 c -0.92,-2.9 0.68,-6 3.58,-6.93 2.9,-0.93 6.01,0.68 6.93,3.58"
         style="fill:#1d2a30;fill-opacity:1;fill-rule:nonzero;stroke:none"
         id="path228" /><path
         d="m 2728.34,1676.07 c 0,-9.75 -7.89,-17.64 -17.64,-17.64 -9.74,0 -17.63,7.89 -17.63,17.64 0,9.73 7.89,17.62 17.63,17.62 9.75,0 17.64,-7.89 17.64,-17.62"
         style="fill:#1d2a30;fill-opacity:1;fill-rule:nonzero;stroke:none"
         id="path230" /><path
         d="M 3038.58,733.859 H 2428.4 c -7.89,0 -14.3,6.411 -14.3,14.313 0,7.898 6.41,14.297 14.3,14.297 h 610.18 c 7.9,0 14.3,-6.399 14.3,-14.297 0,-7.902 -6.4,-14.313 -14.3,-14.313"
         style="fill:#1d2a30;fill-opacity:1;fill-rule:nonzero;stroke:none"
         id="path232" /><path
         d="m 3059.94,781.281 81.77,383.999 c 5.41,25.42 -13.98,49.37 -39.97,49.37 h -712.91 c -25.75,0 -45.08,-23.53 -40.09,-48.78 l 73.31,-371.21 c 3.71,-18.808 19.99,-32.5 39.15,-32.941 l 557.83,-12.77 c 19.64,-0.449 36.82,13.121 40.91,32.332"
         style="fill:#ffffff;fill-opacity:1;fill-rule:nonzero;stroke:none"
         id="path234" /><path
         d="m 3059.94,781.281 5.39,-1.152 81.77,384.001 c 0.7,3.27 1.03,6.53 1.03,9.74 0,24.98 -20.25,46.27 -46.39,46.3 h -712.91 c -26.1,-0.03 -46.39,-21.28 -46.4,-46.3 0,-2.98 0.29,-6.02 0.9,-9.07 l 73.31,-371.21 c 4.21,-21.34 22.69,-36.879 44.43,-37.379 l 557.83,-12.781 1.08,-0.008 c 21.84,0 40.78,15.258 45.35,36.707 l -5.39,1.152 -5.4,1.149 c -3.48,-16.348 -17.92,-27.981 -34.56,-27.981 l -0.82,0.012 -557.84,12.769 c -16.57,0.379 -30.65,12.231 -33.86,28.5 l -73.31,371.21 c -0.46,2.34 -0.69,4.66 -0.69,6.93 0,9.5 3.86,18.32 10.23,24.77 6.38,6.45 15.16,10.49 25.14,10.49 h 712.91 c 9.99,0 18.77,-4.05 25.15,-10.5 6.36,-6.46 10.21,-15.28 10.21,-24.76 0,-2.44 -0.25,-4.93 -0.79,-7.45 l -81.77,-383.99 5.4,-1.149"
         style="fill:#1d2a30;fill-opacity:1;fill-rule:nonzero;stroke:none"
         id="path236" /><path
         d="m 2799.77,993.359 c 0,-31.429 -25.49,-56.91 -56.92,-56.91 -31.43,0 -56.91,25.481 -56.91,56.91 0,31.441 25.48,56.921 56.91,56.921 31.43,0 56.92,-25.48 56.92,-56.921"
         style="fill:#1d2a30;fill-opacity:1;fill-rule:nonzero;stroke:none"
         id="path238" /><path
         d="m 2911.63,1172.69 h 84.71 c 3.04,0 5.51,2.47 5.51,5.51 0,3.05 -2.47,5.52 -5.51,5.52 h -84.71 c -3.05,0 -5.52,-2.47 -5.52,-5.52 0,-3.04 2.47,-5.51 5.52,-5.51"
         style="fill:#1d2a30;fill-opacity:1;fill-rule:nonzero;stroke:none"
         id="path240" /><path
         d="m 2507.14,1172.69 h 321.52 c 3.05,0 5.52,2.47 5.52,5.51 0,3.05 -2.47,5.52 -5.52,5.52 h -321.52 c -3.05,0 -5.52,-2.47 -5.52,-5.52 0,-3.04 2.47,-5.51 5.52,-5.51"
         style="fill:#1d2a30;fill-opacity:1;fill-rule:nonzero;stroke:none"
         id="path242" /><path
         d="m 3061.34,373.922 -65,-170.59 c 0,0 -165.73,41.777 -378.08,85.289 -222.04,45.5 -453.95,104.41 -574.24,315.449 -14.67,25.739 -24.43,56.141 -17.56,84.95 17.36,72.902 112.19,92.679 174.69,99.98 39.24,4.582 78.84,6.102 118.31,6.648 20.13,0.282 86.51,10.832 102.59,-0.988 0,-0.012 41.66,-30.66 77.16,-45.73 35.49,-15.071 553.67,13.539 553.67,13.539 0,0 15.41,32.531 16.3,62.222 81.45,41.399 270.07,76.457 349.76,60.981 125.33,-24.383 198.43,-97.481 184.5,-174.07 -13.92,-76.59 -290.48,-281.981 -542.1,-337.68"
         style="fill:#1d2a30;fill-opacity:1;fill-rule:nonzero;stroke:none"
         id="path244" /><path
         d="m 3062.75,379.25 c -0.01,0 -2.39,0.629 -6.91,1.93 -31.64,9.082 -166.04,50.539 -277.84,126.121 -58.36,39.41 -111.19,81.961 -168.71,114.847 -57.49,32.872 -119.84,55.993 -196.52,55.973 -15.21,0 -30.98,-0.91 -47.38,-2.82 -3.03,-0.352 -5.2,-3.09 -4.85,-6.11 0.36,-3.031 3.09,-5.191 6.12,-4.839 15.99,1.859 31.33,2.738 46.11,2.738 74.42,-0.02 134.54,-22.25 191.05,-54.52 56.49,-32.261 109.17,-74.648 168,-114.41 129.84,-87.68 287.81,-129.469 288.1,-129.57 2.95,-0.781 5.97,0.969 6.75,3.91 0.78,2.949 -0.98,5.969 -3.92,6.75"
         style="fill:#ffffff;fill-opacity:1;fill-rule:nonzero;stroke:none"
         id="path246" /><path
         d="m 2746.81,517.949 c 82.83,23.891 143.11,77.18 208.2,127.512 69.03,53.449 141.9,105.09 220.05,144.621 2.71,1.379 3.8,4.688 2.43,7.406 -1.38,2.723 -4.7,3.813 -7.41,2.434 -79.14,-40.031 -152.54,-92.094 -221.82,-145.731 -65.47,-50.742 -124.62,-102.679 -204.5,-125.64 -2.93,-0.84 -4.62,-3.891 -3.78,-6.821 0.84,-2.929 3.9,-4.621 6.83,-3.781"
         style="fill:#ffffff;fill-opacity:1;fill-rule:nonzero;stroke:none"
         id="path248" /><path
         d="m 2716.68,2195.57 h 23.86 c 3.05,0 5.52,2.47 5.52,5.52 0,3.04 -2.47,5.51 -5.52,5.51 h -23.86 c -3.05,0 -5.52,-2.47 -5.52,-5.51 0,-3.05 2.47,-5.52 5.52,-5.52"
         style="fill:#1d2a30;fill-opacity:1;fill-rule:nonzero;stroke:none"
         id="path250" /></g></g></svg>
